<svg width="16" height="16" viewBox="0 0 16 16" fill="none" xmlns="http://www.w3.org/2000/svg">
<g clip-path="url(#clip0_9_17)">
<path d="M12.25 0H3.75C1.67893 0 0 1.67893 0 3.75V12.25C0 14.3211 1.67893 16 3.75 16H12.25C14.3211 16 16 14.3211 16 12.25V3.75C16 1.67893 14.3211 0 12.25 0Z" fill="#242938"/>
<path d="M5.91713 2.12512H9.616L5.77625 13.502C5.73677 13.6189 5.66162 13.7205 5.56139 13.7924C5.46116 13.8644 5.34089 13.9031 5.2175 13.9032H2.33888C2.19781 13.9032 2.06142 13.8526 1.95454 13.7605C1.84766 13.6685 1.77738 13.5411 1.7565 13.4016C1.7426 13.3091 1.75096 13.2147 1.78088 13.1261L5.35832 2.52631C5.39779 2.40938 5.47293 2.30777 5.57318 2.23578C5.67342 2.16378 5.79371 2.12504 5.91713 2.125V2.12512Z" fill="url(#paint0_linear_9_17)"/>
<path d="M11.2921 9.75594H5.42663C5.3721 9.75585 5.31881 9.77221 5.27371 9.80287C5.22861 9.83353 5.1938 9.87707 5.17382 9.92781C5.15378 9.97853 5.1495 10.0341 5.16153 10.0873C5.17356 10.1405 5.20134 10.1888 5.24126 10.226L9.01032 13.7439C9.12004 13.8463 9.26452 13.9032 9.41457 13.9032H12.7359L11.2921 9.75594Z" fill="#0078D4"/>
<path d="M5.9172 2.12513C5.79243 2.12465 5.67077 2.16409 5.56999 2.23767C5.46922 2.31125 5.39462 2.41513 5.35708 2.53413L1.78533 13.1164C1.75346 13.2053 1.74346 13.3006 1.75619 13.3942C1.76891 13.4878 1.80398 13.5769 1.85843 13.6541C1.91288 13.7312 1.9851 13.7942 2.069 13.8375C2.1529 13.8809 2.24601 13.9034 2.34045 13.9032H5.29339C5.40336 13.8835 5.50615 13.835 5.59124 13.7626C5.67634 13.6903 5.74071 13.5966 5.77777 13.4912L6.49008 11.3921L9.03433 13.7651C9.14093 13.8533 9.27466 13.902 9.41302 13.9032H12.722L11.2707 9.756L7.04014 9.757L9.62939 2.12513H5.9172Z" fill="url(#paint1_linear_9_17)"/>
<path d="M10.6415 2.52575C10.6021 2.40897 10.5271 2.3075 10.427 2.23562C10.3269 2.16375 10.2067 2.1251 10.0835 2.12513H5.96118C6.08442 2.1251 6.20456 2.16375 6.30467 2.23562C6.40477 2.3075 6.4798 2.40897 6.51918 2.52575L10.0967 13.126C10.1266 13.2146 10.135 13.309 10.1211 13.4015C10.1073 13.494 10.0717 13.5818 10.0172 13.6578C9.96263 13.7338 9.89079 13.7956 9.80759 13.8383C9.7244 13.881 9.63225 13.9033 9.53874 13.9033H13.6612C13.7547 13.9033 13.8468 13.881 13.93 13.8383C14.0132 13.7956 14.085 13.7337 14.1396 13.6578C14.1941 13.5818 14.2297 13.4939 14.2436 13.4015C14.2574 13.309 14.249 13.2146 14.2191 13.126L10.6415 2.52575Z" fill="url(#paint2_linear_9_17)"/>
</g>
<defs>
<linearGradient id="paint0_linear_9_17" x1="7.26526" y1="2.99794" x2="3.42394" y2="14.3463" gradientUnits="userSpaceOnUse">
<stop stop-color="#114A8B"/>
<stop offset="1" stop-color="#0669BC"/>
</linearGradient>
<linearGradient id="paint1_linear_9_17" x1="8.46527" y1="8.28656" x2="7.5767" y2="8.587" gradientUnits="userSpaceOnUse">
<stop stop-opacity="0.3"/>
<stop offset="0.071" stop-opacity="0.2"/>
<stop offset="0.321" stop-opacity="0.1"/>
<stop offset="0.623" stop-opacity="0.05"/>
<stop offset="1" stop-opacity="0"/>
</linearGradient>
<linearGradient id="paint2_linear_9_17" x1="7.97656" y1="2.66694" x2="12.1932" y2="13.9009" gradientUnits="userSpaceOnUse">
<stop stop-color="#3CCBF4"/>
<stop offset="1" stop-color="#2892DF"/>
</linearGradient>
<clipPath id="clip0_9_17">
<rect width="16" height="16" fill="white"/>
</clipPath>
</defs>
</svg>
