<svg width="16" height="16" viewBox="0 0 16 16" fill="none" xmlns="http://www.w3.org/2000/svg">
<g clip-path="url(#clip0_13_86)">
<path d="M12.25 0H3.75C1.67893 0 0 1.67893 0 3.75V12.25C0 14.3211 1.67893 16 3.75 16H12.25C14.3211 16 16 14.3211 16 12.25V3.75C16 1.67893 14.3211 0 12.25 0Z" fill="#242938"/>
<path d="M4.75406 2.6875C5.89544 2.6875 6.82062 3.61269 6.82062 4.75406C6.82062 5.89544 5.89544 6.82062 4.75406 6.82062C3.61269 6.82062 2.6875 5.89544 2.6875 4.75406C2.6875 3.61269 3.61269 2.6875 4.75406 2.6875ZM7.73912 6.82062C8.5 6.82062 9.11687 7.4375 9.11687 8.19837C9.11687 8.95925 8.5 9.57606 7.73912 9.57606C6.97825 9.57606 6.36144 8.95925 6.36144 8.19837C6.36144 7.4375 6.97825 6.82062 7.73912 6.82062ZM7.73912 10.4946C8.5 10.4946 9.11687 11.1114 9.11687 11.8723C9.11687 12.6332 8.5 13.25 7.73912 13.25C6.97825 13.25 6.36144 12.6332 6.36144 11.8723C6.36144 11.1114 6.97825 10.4946 7.73912 10.4946Z" stroke="#2088FF" stroke-width="0.45925" stroke-linecap="round" stroke-linejoin="round"/>
<path d="M11.8723 10.4946C12.6332 10.4946 13.25 11.1114 13.25 11.8723C13.25 12.6332 12.6332 13.25 11.8723 13.25C11.1114 13.25 10.4946 12.6332 10.4946 11.8723C10.4946 11.1114 11.1114 10.4946 11.8723 10.4946Z" stroke="#79B8FF" stroke-width="0.45925" stroke-linecap="round" stroke-linejoin="round"/>
<path d="M8.20676 7.87851L7.50201 8.58232L7.1597 8.2412" stroke="#2088FF" stroke-width="0.45925" stroke-linecap="round" stroke-linejoin="round"/>
<path d="M11.8723 6.82062C12.6332 6.82062 13.25 7.43749 13.25 8.19837C13.25 8.95924 12.6332 9.57606 11.8723 9.57606C11.1114 9.57606 10.4946 8.95924 10.4946 8.19837C10.4946 7.43749 11.1114 6.82062 11.8723 6.82062Z" stroke="#2088FF" stroke-width="0.45925" stroke-linecap="round" stroke-linejoin="round"/>
<path d="M12.3399 7.8785L11.6351 8.58231L11.2929 8.24119M4.52444 6.82062V10.2649C4.52444 11.1526 5.254 11.8722 6.13181 11.8722H6.36144M4.06519 4.02206C4.06519 3.84137 4.26431 3.73144 4.41725 3.82781L5.59125 4.56737C5.73481 4.65781 5.73406 4.86737 5.58987 4.95681L4.41581 5.68481C4.26287 5.77969 4.06519 5.66969 4.06519 5.48969V4.02206Z" stroke="#2088FF" stroke-width="0.45925" stroke-linecap="round" stroke-linejoin="round"/>
<path d="M6.34967 8.42792C6.41057 8.42792 6.46896 8.40373 6.51202 8.36068C6.55508 8.31762 6.57927 8.25922 6.57927 8.19833C6.57927 8.13744 6.55508 8.07904 6.51202 8.03598C6.46896 7.99293 6.41057 7.96874 6.34967 7.96874V8.42792ZM4.2948 6.82867C4.2948 7.71192 5.01086 8.42792 5.89405 8.42792V7.96874C5.26442 7.96874 4.75405 7.4583 4.75405 6.82867H4.2948ZM5.89405 8.42792H6.34967V7.96874H5.89405V8.42792Z" fill="#2088FF"/>
<path d="M9.12943 8.19836H10.4944" stroke="#2088FF" stroke-width="0.45925" stroke-linecap="round" stroke-linejoin="round"/>
<path fill-rule="evenodd" clip-rule="evenodd" d="M7.27989 11.6427C7.34079 11.6427 7.39919 11.6669 7.44226 11.71C7.48532 11.753 7.50951 11.8114 7.50951 11.8723C7.50951 11.9332 7.48532 11.9916 7.44226 12.0347C7.39919 12.0778 7.34079 12.1019 7.27989 12.1019C7.21899 12.1019 7.16058 12.0778 7.11752 12.0347C7.07445 11.9916 7.05026 11.9332 7.05026 11.8723C7.05026 11.8114 7.07445 11.753 7.11752 11.71C7.16058 11.6669 7.21899 11.6427 7.27989 11.6427ZM8.19839 11.6427C8.24382 11.6427 8.28824 11.6561 8.32602 11.6814C8.3638 11.7066 8.39325 11.7425 8.41064 11.7845C8.42803 11.8264 8.43259 11.8726 8.42373 11.9172C8.41487 11.9617 8.39299 12.0027 8.36086 12.0348C8.32874 12.0669 8.28781 12.0888 8.24324 12.0977C8.19868 12.1065 8.1525 12.102 8.11052 12.0846C8.06855 12.0672 8.03268 12.0377 8.00745 12C7.98221 11.9622 7.96875 11.9178 7.96876 11.8723C7.9688 11.8114 7.993 11.753 8.03605 11.71C8.07911 11.6669 8.1375 11.6427 8.19839 11.6427Z" fill="#79B8FF"/>
<path d="M10.2661 11.8738L10.0336 11.8814" stroke="#79B8FF" stroke-width="0.45925" stroke-linecap="round"/>
</g>
<defs>
<clipPath id="clip0_13_86">
<rect width="16" height="16" fill="white"/>
</clipPath>
</defs>
</svg>
