<svg width="16" height="16" viewBox="0 0 16 16" fill="none" xmlns="http://www.w3.org/2000/svg">
<g clip-path="url(#clip0_10_38)">
<path d="M12.25 0H3.75C1.67893 0 0 1.67893 0 3.75V12.25C0 14.3211 1.67893 16 3.75 16H12.25C14.3211 16 16 14.3211 16 12.25V3.75C16 1.67893 14.3211 0 12.25 0Z" fill="#F4F2ED"/>
<path d="M5.61113 12.1204C5.15876 11.7646 4.67613 11.4234 4.34644 10.9431C3.65257 10.0959 3.11832 9.11512 2.75307 8.0845C2.53232 7.41425 2.45676 6.69575 2.17213 6.05137C1.87444 5.58343 2.22319 5.07193 2.73576 4.92318C2.96394 4.87937 3.36526 4.66412 2.88088 4.81793C2.44663 5.13656 2.40463 4.52875 2.84988 4.49025C3.15376 4.44987 3.26563 4.20106 3.16176 3.97712C2.83551 3.76437 3.95276 3.53056 3.39063 3.21318C2.80501 2.58131 4.20976 2.45975 3.86313 3.17725C3.78019 3.72906 4.84476 3.07612 4.59776 3.71331C4.84882 4.01931 5.53788 3.78293 5.52076 4.21225C5.88651 4.23737 6.01201 4.54506 6.35532 4.56868C6.71113 4.72937 7.35613 4.856 7.47719 5.25693C7.12419 5.53643 6.30682 4.67968 6.26751 5.45325C6.37413 6.59606 6.34701 7.77331 6.76513 8.86156C6.96288 9.5205 7.44232 10.0392 7.87526 10.5524C8.28957 11.0551 8.85069 11.4089 9.42263 11.7069C9.92438 11.9435 10.4653 12.1004 11.0121 12.1989C11.2338 12.0292 11.6254 11.3986 11.9714 11.6646C11.9878 11.9634 11.2847 12.2892 11.9383 12.2561C12.3221 12.1404 12.5883 12.553 12.9043 12.1808C13.1955 12.5257 14.1146 11.9604 13.9074 12.6654C13.6273 12.8462 13.2186 12.7369 12.9381 12.9856C12.4754 12.7545 12.1071 13.1924 11.5949 13.137C11.0261 13.2389 10.4474 13.28 9.87069 13.2809C8.92463 13.2061 7.95851 13.1746 7.05851 12.8452C6.55151 12.6979 6.05669 12.4092 5.61113 12.1204ZM6.41013 12.4666C6.90519 12.6807 7.38932 12.9063 7.93188 12.9744C8.79269 13.0941 9.68163 13.2782 10.5455 13.1103C10.1545 12.9337 9.75032 13.1791 9.36076 12.9841C8.89363 13.0846 8.39226 12.9584 7.91738 12.8963C7.37726 12.6557 6.79444 12.4904 6.28869 12.1781C5.65669 11.9472 6.61551 12.4741 6.78619 12.5167C7.18126 12.741 6.35176 12.4018 6.23482 12.3086C5.90394 12.123 5.86176 12.1618 6.20207 12.3503C6.27057 12.3904 6.33832 12.4324 6.41013 12.4666ZM5.46807 11.8008C5.94782 11.9786 5.46594 11.4635 5.24613 11.4934C5.14869 11.3244 4.87401 11.2177 5.06782 11.1269C4.71919 11.2479 4.70263 10.6667 4.53876 10.7497C4.17001 10.6333 4.39526 10.2207 3.95594 9.96743C3.91582 9.7005 3.51951 9.469 3.39307 9.06637C3.33726 8.86025 2.94532 8.26825 3.18607 8.81918C3.39107 9.34956 3.75176 9.80375 4.05194 10.2574C4.28507 10.6893 4.56026 11.1407 4.98476 11.4102C5.12788 11.5475 5.26601 11.7578 5.46807 11.8008ZM4.08601 10.2834C4.17376 10.4402 4.10276 10.211 4.08601 10.2834ZM6.04263 12.0139C6.14888 11.9663 5.88982 11.9539 6.04263 12.0139ZM6.30307 12.1089C6.27607 11.9777 6.18413 12.1822 6.30307 12.1089ZM6.62901 12.2448C6.78419 12.0971 6.38982 12.1517 6.62901 12.2448ZM7.18776 12.5562C7.28207 12.4168 6.88588 12.5036 7.18776 12.5562ZM6.11488 11.8083C6.35588 11.6524 5.80351 11.8062 6.11488 11.8083ZM6.35938 11.9302C6.35257 11.8478 6.27226 11.9672 6.35938 11.9302ZM7.58163 12.6931C7.77807 12.8171 8.72894 12.9649 8.13357 12.7439C8.03394 12.7649 7.02951 12.4599 7.58163 12.6931ZM5.64132 11.1819C5.62219 11.0992 5.33632 11.0907 5.64132 11.1819ZM6.21032 11.5136C6.35838 11.4103 5.90294 11.4339 6.21032 11.5136ZM6.68888 11.807C6.90138 11.7269 6.34419 11.7265 6.68888 11.807ZM5.40976 10.9298C5.64038 11.1066 6.33957 10.9524 5.76288 10.8242C5.50038 10.6843 4.90876 10.5886 5.31201 10.9086L5.40976 10.9298ZM7.01307 11.9083C7.10907 11.7447 6.61032 11.8149 7.01307 11.9083ZM6.52588 11.5211C7.08963 11.6806 6.05182 11.1646 6.38676 11.4624L6.46101 11.4961L6.52588 11.5211ZM7.50263 12.0857C8.03657 12.0908 7.02038 12.0121 7.50263 12.0857ZM5.20432 10.6209C5.18351 10.5214 5.07257 10.6292 5.20432 10.6209ZM8.40576 12.5923C8.42001 12.4127 8.23157 12.7259 8.40576 12.5923ZM6.11551 11.1789C6.08319 11.0843 5.94863 11.175 6.11551 11.1789ZM5.25501 10.5585C5.56151 10.5401 4.83532 10.4234 5.25501 10.5585ZM4.23563 9.89956C4.19751 9.75262 3.90207 9.63543 4.23563 9.89956ZM6.91176 11.5979C6.88532 11.6119 6.85557 11.5339 6.91176 11.5979ZM8.57744 12.6201C8.57213 12.5222 8.48676 12.6571 8.57744 12.6201ZM6.76432 11.4457C6.79432 11.3196 6.50294 11.4075 6.76432 11.4457ZM5.52338 10.6592C5.75144 10.6348 5.15807 10.5051 5.52338 10.6592ZM7.62251 11.9636C7.97788 11.8228 7.27619 11.8949 7.62251 11.9636ZM6.53063 11.2224C6.94019 11.2752 6.04332 10.9439 6.44076 11.1927L6.53063 11.2224ZM7.95401 12.0976C8.33638 11.869 8.21032 12.6329 8.60276 12.1621C8.98982 11.8795 8.26844 12.5116 8.7455 12.2126C9.0905 11.9818 9.60007 12.3219 9.92201 12.4329C10.1535 12.4215 10.3785 12.6331 10.6159 12.5044C11.0727 12.3813 9.72251 12.3219 10.0764 12.1036C9.65838 12.2252 9.34957 11.9585 9.14388 11.6907C8.67494 11.5824 8.13282 11.3427 7.89882 10.9278C7.80338 10.772 8.03663 10.9497 7.81644 10.6951C7.53388 10.4437 7.39282 10.1585 7.20313 9.853C6.97651 9.73212 6.95013 9.37631 6.92726 9.84106C6.92901 9.54775 6.65363 9.35031 6.58644 9.43237C6.58526 9.14993 6.88113 9.2915 6.67401 9.0825C6.62944 8.78975 6.48263 8.48462 6.43851 8.15406C6.36994 7.99475 6.42882 7.6535 6.20451 8.01418C6.12276 8.39543 6.17738 7.54575 6.30444 7.82593C6.47132 7.54 6.24457 7.57362 6.23532 7.61331C6.34394 7.37212 6.30407 7.02993 6.20694 7.16043C6.26482 6.90475 6.29844 6.2195 6.12026 6.34093C6.22826 6.07356 6.32507 5.1175 5.85626 5.482C5.66626 5.48468 5.33732 5.551 5.18176 5.62831C5.66938 5.89706 5.13276 5.72537 4.93426 5.68268C4.90838 5.93143 4.71176 5.82381 4.46613 5.82625C4.85844 5.87481 4.27513 6.2275 4.05007 6.0905C3.75776 6.23018 4.30232 6.57887 4.05588 6.68668C4.08619 6.84925 3.60813 6.628 3.64569 7.00337C3.36194 6.884 3.60663 7.44862 3.74857 7.25768C4.23119 7.38831 4.08832 7.68606 4.10063 7.96893C4.02194 8.13381 3.71238 7.5815 4.03163 7.60712C3.77976 7.19793 3.75301 7.45918 3.54369 7.64931C3.49501 7.66306 4.07763 7.91975 3.71201 8.04668C4.03363 8.09631 4.04282 8.37775 4.10826 8.55587C4.30163 8.75725 4.26201 8.33356 4.49338 8.5755C4.34701 8.35993 3.71801 7.96806 4.22444 8.09375C4.22176 7.87675 4.13282 7.70181 4.28801 7.70606C4.44163 7.42781 4.12707 8.39212 4.47338 8.0385C4.56926 7.99662 4.59301 7.75987 4.76538 8.06081C5.01563 8.30706 4.85576 8.4855 4.50269 8.26C4.56582 8.47431 4.97501 8.55087 4.89813 8.886C4.97963 9.18068 5.09369 9.07218 5.19307 9.05512C5.27107 9.3415 5.31532 9.13093 5.31901 8.99462C5.67607 9.07106 5.59244 9.28212 5.70413 9.42956C5.95013 9.54062 5.35201 8.67681 5.77438 9.16981C6.21876 9.57106 5.94101 9.73856 5.54226 9.67425C5.79463 9.65387 5.87601 10.0155 6.19176 10.0028C6.47963 10.1397 6.67457 10.6658 6.17832 10.4468C6.00619 10.2916 5.39707 10.1002 5.89457 10.3954C6.35407 10.6081 6.71901 10.7354 7.16219 11.0025C7.47932 11.2289 7.61632 11.4882 7.73657 11.5396C7.47001 11.6669 6.93326 11.4379 7.33182 11.3677C7.08326 11.3225 6.80363 11.1967 7.04176 11.5065C7.24419 11.6756 7.75907 11.6576 7.85138 11.6767C7.77313 11.8492 7.63888 11.8629 7.85457 11.8762C7.61394 12.0045 7.93169 12.0243 7.95401 12.0976ZM7.46194 10.708C7.31551 10.5549 7.27769 10.2681 7.43594 10.5176C7.51707 10.5502 7.69594 10.9862 7.46194 10.708ZM9.06451 11.7259C9.15582 11.72 9.06713 11.7953 9.06451 11.7259ZM7.23076 10.3326C7.28369 10.5111 7.22513 10.1011 7.23076 10.3326ZM7.07151 10.1182C7.30363 10.219 6.88732 9.76243 7.07151 10.1182ZM5.14132 8.78606C5.24951 8.75718 5.19457 8.97112 5.14132 8.78606ZM6.67751 9.61868C6.75557 9.82806 6.74394 9.36918 6.67751 9.61868ZM5.59226 8.86412C5.75226 8.99325 5.51576 8.72643 5.59226 8.86412ZM6.52363 9.16268C6.34913 8.77175 6.64713 8.94912 6.56219 9.22675L6.52363 9.16268ZM4.91744 8.0915C4.83944 7.96331 4.71044 7.587 4.75194 7.47212C4.78957 7.65918 5.14982 8.27718 4.92869 7.72812C4.68432 7.26787 5.22076 7.87756 5.27594 7.99231C5.30163 8.10656 5.12519 7.96112 5.24469 8.22893C5.02669 7.92406 5.11601 8.39731 4.91744 8.0915ZM4.42107 7.7495C4.53469 7.95393 4.44151 7.45131 4.42107 7.7495ZM4.64438 7.82631C4.82501 8.14006 4.75088 7.60131 4.64438 7.82631ZM4.10726 7.41081C3.92244 7.22718 3.78869 7.05793 4.11588 7.29687C4.24194 7.30181 3.83582 6.91187 4.14626 7.17306C4.47269 7.23256 4.30751 7.70831 4.10726 7.41081ZM4.38938 7.40343C4.49669 7.29712 4.44638 7.50818 4.38938 7.40343ZM4.56301 7.45912C4.76051 7.587 4.40026 7.15412 4.56301 7.45912ZM4.21788 7.12931C3.68063 6.65118 4.89294 7.37931 4.30563 7.21793L4.21788 7.12931ZM5.75719 8.02368C5.52469 7.88431 5.69557 7.04231 5.77482 7.61818C6.00088 7.54506 5.76232 7.91556 5.93094 7.91212C5.90438 8.14587 5.82894 8.22993 5.75719 8.02368ZM6.32651 8.36018C6.37451 8.53368 6.34932 8.10643 6.32651 8.36018ZM6.22763 8.26243C6.25326 8.15406 6.23026 8.39012 6.22763 8.26243ZM4.32326 6.97218C3.97813 6.496 5.32638 7.45387 4.54432 7.093C4.46263 7.07162 4.36432 7.064 4.32326 6.97218ZM5.41963 7.5535C5.49257 7.61993 5.38701 7.15256 5.41963 7.5535ZM6.25207 8.0875C6.31644 7.85906 6.25688 8.23856 6.25207 8.0875ZM4.37613 6.79043C4.58126 6.74656 5.22626 7.15075 4.63394 6.90587C4.56813 6.83306 4.42782 6.86612 4.37613 6.79043ZM6.13769 7.66843C6.15957 7.25843 6.26013 7.4235 6.13844 7.72712L6.13769 7.66843ZM4.52882 6.64781C4.61244 6.52518 4.30694 6.09343 4.57288 6.49293C4.68776 6.58425 4.90551 6.64587 4.71326 6.68431C5.01563 6.95106 4.63944 6.75656 4.52882 6.64781ZM6.05063 7.54037C6.10838 7.07331 6.10157 7.814 6.05063 7.54037ZM4.35438 6.21643C4.41813 6.18912 4.38807 6.3015 4.35438 6.21643ZM4.75126 6.45268C4.93969 6.69175 4.85344 6.23831 4.75126 6.45268ZM5.87088 7.0755C5.89201 7.19525 5.86982 6.99318 5.87088 7.0755ZM5.80607 6.93193C5.95063 7.13493 5.65063 6.54856 5.80607 6.93193ZM5.71063 6.68056C5.79926 6.87956 5.68457 6.52212 5.71063 6.68056ZM5.86594 6.42812C5.75926 6.24018 6.00057 5.6 6.02751 5.99706C5.91501 6.30643 5.99501 6.4795 6.07357 6.06456C6.21857 5.73793 6.04226 6.709 5.86594 6.42812ZM6.02551 5.476C6.07201 5.41893 6.03582 5.54475 6.02551 5.476ZM5.75901 10.7274C5.76694 10.7625 5.69582 10.6722 5.75901 10.7274ZM6.30801 11.0051C6.61338 11.0834 6.61182 10.9576 6.33582 10.9202C6.18738 10.7821 5.71894 10.6356 6.13819 10.9031C6.16601 10.9734 6.25369 10.9717 6.30801 11.0051ZM5.22376 10.2849C5.39201 10.4104 5.85751 10.6405 5.46344 10.3327C5.59626 10.1783 5.20913 10.0962 5.33757 9.99293C5.01088 9.79306 5.07988 9.81081 5.30869 9.81712C4.91619 9.64162 5.36538 9.65475 5.34426 9.56487C5.19288 9.53493 4.59238 9.29793 4.94563 9.58431C4.58651 9.40125 4.86001 9.65256 4.75151 9.626C4.38432 9.52581 5.07857 9.90562 4.69319 9.81137C4.90382 9.97831 5.26026 10.239 4.78226 9.98806C4.71926 10.0787 5.12432 10.2161 5.22376 10.2849ZM5.79794 10.6148C6.49613 10.8397 5.45563 10.3399 5.79794 10.6148ZM8.73726 12.3954C8.74626 12.2569 8.64188 12.5136 8.73726 12.3954ZM9.03938 12.5226C9.20044 12.3665 9.04594 12.7712 9.30632 12.4844C9.30913 12.2791 9.29826 12.1577 9.00713 12.4072C8.92688 12.4517 8.89107 12.6409 9.03938 12.5226ZM4.24376 9.51087C4.19426 9.31637 3.89701 9.31737 4.24376 9.51087ZM4.56632 9.72225C4.44657 9.52362 4.13888 9.54243 4.56632 9.72225ZM6.40157 10.8291C6.58076 10.9882 7.22457 10.9458 6.61926 10.8486C6.52957 10.7161 6.04994 10.748 6.40157 10.8291ZM8.92451 12.3871C9.20026 12.1557 8.65726 12.4904 8.92451 12.3871ZM9.49801 12.7812C9.49976 12.707 9.37919 12.8138 9.49801 12.7812ZM9.49894 12.6773C9.80432 12.3537 9.20301 12.6964 9.49894 12.6773ZM3.45032 8.84656C3.19001 8.47518 3.28844 8.30825 3.03751 8.00506C2.99001 7.77318 2.60688 7.24693 2.83938 7.80443C3.05226 8.13043 3.11557 8.63525 3.45032 8.84656ZM9.40313 12.5744C9.96494 12.2113 9.17251 12.4162 9.40313 12.5744ZM9.83201 12.7425C10.1134 12.5009 9.65407 12.6919 9.83201 12.7425ZM4.14813 9.10037C4.22863 8.98056 3.94013 9.085 4.14813 9.10037ZM9.74244 12.6277C10.0149 12.4521 9.67969 12.4791 9.69307 12.6439L9.74244 12.6277ZM6.04532 10.2975C6.03594 10.1789 5.90151 10.3076 6.04532 10.2975ZM6.27382 10.4289C6.20119 10.2821 6.16219 10.452 6.27382 10.4289ZM10.1795 12.7464C10.5285 12.4947 9.96794 12.6982 10.1063 12.7941L10.1795 12.7464ZM10.0459 12.6819C10.3302 12.4436 9.74569 12.7874 10.0459 12.6819ZM10.7287 13.1366C10.9196 13.0087 10.4968 13.0952 10.7287 13.1366ZM4.32307 9.01394C4.57901 9.07131 5.34563 9.64412 4.89338 9.05356C4.66169 8.985 4.80063 8.41875 4.56438 8.519C4.72294 8.78393 4.69482 8.89668 4.36188 8.72968C3.94338 8.52537 4.12669 8.83087 4.20844 8.91512C4.09701 8.94043 4.35588 9.01181 4.32307 9.01394ZM3.15744 8.09331C3.20326 7.90387 2.73563 7.051 2.93663 7.666C3.00913 7.79481 3.00182 8.03893 3.15744 8.09331ZM5.29707 9.41243C5.29082 9.39687 5.16532 9.30225 5.29707 9.41243ZM5.62157 9.488C5.62138 9.28725 5.26288 9.4065 5.62157 9.488ZM8.43326 11.2605C8.37963 11.1234 8.22126 11.2573 8.43326 11.2605ZM8.56825 11.3591C8.54832 11.2824 8.49038 11.3739 8.56825 11.3591ZM9.68269 12.0611C9.78988 11.9819 9.54894 12.051 9.68269 12.0611ZM3.73976 8.242C4.04632 8.12325 3.41126 8.15731 3.73976 8.242ZM8.18569 11.043C8.18232 10.8445 7.99025 11.0922 8.18569 11.043ZM3.61863 7.95968C3.81551 7.89318 3.43644 7.91587 3.61863 7.95968ZM4.19019 8.23662C4.18663 8.17137 4.12976 8.26131 4.19019 8.23662ZM11.1621 12.5119C11.4154 12.4606 11.9924 12.6407 12.0858 12.4447C11.7782 12.4372 11.0218 12.2277 10.9859 12.4947L11.0533 12.5053L11.1621 12.5119ZM4.37182 8.28237C4.37619 8.08125 4.21494 8.27487 4.37182 8.28237ZM2.86894 7.23987C2.80063 6.85662 2.60932 7.18187 2.86894 7.23987ZM3.22732 7.32993C3.23169 7.20687 2.89926 7.21918 3.22732 7.32993ZM3.43213 7.4305C3.38576 7.49112 3.37288 7.38256 3.43213 7.4305ZM4.72082 8.25718C4.78144 8.2015 4.57713 8.21593 4.72082 8.25718ZM3.29563 7.20368C3.26101 6.91425 2.88057 7.16031 3.29563 7.20368ZM2.56088 6.72693C2.55044 6.59331 2.48926 6.77731 2.56088 6.72693ZM2.67019 6.64437C2.65232 6.486 2.57632 6.6645 2.67019 6.64437ZM3.27407 7.00481C3.52938 6.9045 2.80894 6.79737 3.22188 6.98587L3.27407 7.00481ZM11.3558 11.9968C11.5193 11.847 11.1481 11.9505 11.3558 11.9968ZM12.3322 12.5029C12.3977 12.3092 12.1673 12.5284 12.3322 12.5029ZM3.33582 6.68831C3.36269 6.50093 3.13332 6.7255 3.33582 6.68831ZM2.47669 6.11268C2.43051 5.84812 2.43682 5.38368 2.87826 5.54062C2.28901 5.65762 3.28613 6.27306 3.16019 5.78718C3.40801 5.79931 3.64494 5.64075 3.51488 5.88137C4.00307 5.82743 4.34157 5.40412 4.81313 5.46343C5.18044 5.41481 5.58207 5.37793 5.97788 5.23012C6.30332 5.20662 6.61663 4.85625 6.43826 4.64856C5.99444 4.61106 5.52982 4.66656 5.03926 4.76406C4.49569 4.87706 4.00194 5.09175 3.45344 5.18393C2.91882 5.25575 3.56094 5.38175 3.40782 5.40987C3.12888 5.50662 3.74051 5.57193 3.37169 5.67393C3.14388 5.63062 2.90676 5.55237 3.00407 5.31231C2.49194 5.37875 2.04201 5.59131 2.44657 6.11243L2.47669 6.11268ZM3.71063 5.48425C3.83069 5.04187 4.35394 5.84818 3.90751 5.543C3.85413 5.50306 3.76644 5.4705 3.71063 5.48425ZM3.73401 5.26975C3.90732 5.14068 3.82613 5.34212 3.73401 5.26975ZM3.95401 5.27325C3.96969 5.06975 4.45776 5.381 4.03451 5.34656L3.95401 5.27325ZM4.25507 5.15225C4.36501 5.02381 4.28663 5.2665 4.25507 5.15225ZM4.33207 5.10068C4.51507 4.88075 5.36857 4.96031 4.74388 5.07925C4.57638 4.95318 4.44807 5.15356 4.33201 5.10068M5.44582 4.929C5.99919 5.14243 5.41801 4.32825 5.44582 4.929ZM5.76188 4.92725C5.87744 4.6245 6.21026 4.80575 5.81532 4.86643C5.82394 4.89862 5.80376 5.02268 5.76188 4.92725ZM3.21113 6.53293C3.55638 6.3215 2.84463 6.3495 3.21113 6.53293ZM3.46638 6.60381C3.58744 6.47512 3.20338 6.55162 3.46638 6.60381ZM2.71426 6.07006C2.91151 5.9185 2.48082 6.01243 2.71426 6.07006ZM12.9084 12.4476C12.9142 12.2717 12.7577 12.5267 12.9084 12.4476ZM11.8726 11.7406C11.9021 11.5382 11.7395 11.7583 11.8726 11.7406ZM13.1933 12.5157C13.4691 12.5166 14.029 12.4301 13.4289 12.4303C13.3347 12.445 12.8802 12.4419 13.1933 12.5157ZM3.69101 6.47975C3.91419 6.46443 4.04026 6.2335 3.64788 6.24681C3.03969 6.18387 4.18438 6.45506 3.56976 6.3775C3.48726 6.43218 3.68619 6.49487 3.69101 6.47975ZM3.88757 6.57925C3.86426 6.43593 3.81857 6.65543 3.88757 6.57925ZM4.12076 5.95743C4.21763 5.83731 3.98676 5.92531 4.12076 5.95743ZM3.37844 4.71656C3.77682 4.58106 4.32157 4.42875 4.50969 4.78331C4.31826 4.55287 4.43244 4.32606 4.61319 4.66293C4.86888 5.00381 4.99688 4.50793 4.83057 4.39356C5.02007 4.62906 5.23557 4.74031 4.95744 4.4085C5.25976 4.04487 4.35226 4.45606 4.14601 4.45193C4.04676 4.4965 3.12138 4.68793 3.37844 4.71656ZM3.61188 4.26943C3.83907 4.09793 4.39769 4.37143 4.03926 4.099C4.00419 4.06806 3.25426 4.30556 3.61188 4.26943ZM4.44019 4.30362C4.70607 4.31043 4.32551 3.94643 4.64232 4.11137C4.59032 3.94137 4.27344 3.9095 4.11857 3.84162C4.03088 3.997 4.29688 4.30568 4.44019 4.30362ZM3.75713 3.55175C3.84913 3.42706 3.59588 3.61493 3.75713 3.55175ZM4.09569 3.63275C4.52419 3.57593 3.98644 3.44825 4.00932 3.62818L4.09569 3.63275ZM3.46357 3.13818C3.16182 2.74431 4.03094 3.20437 3.72444 2.79193C3.46644 2.58656 3.21851 3.02318 3.46357 3.13818ZM7.33557 5.22375C7.47394 4.97843 6.76426 4.89312 7.24232 5.13681C7.28638 5.1515 7.27638 5.24075 7.33557 5.22375Z" fill="black"/>
</g>
<defs>
<clipPath id="clip0_10_38">
<rect width="16" height="16" fill="white"/>
</clipPath>
</defs>
</svg>
