<svg width="16" height="16" viewBox="0 0 16 16" fill="none" xmlns="http://www.w3.org/2000/svg">
<g clip-path="url(#clip0_13_100)">
<path d="M12.25 0H3.75C1.67893 0 0 1.67893 0 3.75V12.25C0 14.3211 1.67893 16 3.75 16H12.25C14.3211 16 16 14.3211 16 12.25V3.75C16 1.67893 14.3211 0 12.25 0Z" fill="#F4F2ED"/>
<path d="M10.0631 5.77439L11.1496 4.68776L11.2221 4.23026C9.24206 2.42983 6.09457 2.63401 4.30957 4.65626C3.81382 5.21789 3.446 5.91814 3.24988 6.64127L3.639 6.58639L5.81213 6.22808L5.97988 6.05651C6.9465 4.99489 8.58094 4.85202 9.69707 5.75526L10.0631 5.77439Z" fill="#EA4335"/>
<path d="M12.6975 6.60932C12.4478 5.68957 11.935 4.86273 11.222 4.23032L9.69703 5.75532C10.0149 6.01501 10.2696 6.34348 10.4419 6.71596C10.6143 7.08845 10.6999 7.49521 10.6921 7.90557V8.17625C11.4417 8.17625 12.0493 8.78388 12.0493 9.53344C12.0493 10.283 11.4417 10.8755 10.6921 10.8755H7.97378L7.70691 11.1653V12.7932L7.97378 13.0486H10.6921C12.6418 13.0638 14.2347 11.5108 14.2498 9.56113C14.2544 8.97928 14.1151 8.40532 13.8442 7.89033C13.5734 7.37534 13.1795 6.93528 12.6975 6.60932Z" fill="#4285F4"/>
<path d="M5.2593 13.0486H7.9738V10.8755H5.2593C5.06713 10.8755 4.87724 10.8339 4.70268 10.7535L4.31761 10.8717L3.22343 11.9583L3.12811 12.3281C3.74174 12.7914 4.49036 13.0519 5.2593 13.0486Z" fill="#34A853"/>
<path d="M5.25932 5.99932C3.30957 6.01095 1.73844 7.60095 1.75 9.55063C1.75323 10.0879 1.87904 10.6174 2.11785 11.0987C2.35666 11.58 2.70217 12.0004 3.12806 12.328L4.70263 10.7534C4.0195 10.4448 3.71594 9.64082 4.02456 8.95776C4.33319 8.2747 5.13719 7.97107 5.82019 8.27963C6.12121 8.41564 6.3623 8.65674 6.49831 8.95776L8.07288 7.3832C7.74241 6.95113 7.31646 6.60138 6.82835 6.36129C6.34024 6.1212 5.80321 5.9973 5.25925 5.99926" fill="#FBBC05"/>
</g>
<defs>
<clipPath id="clip0_13_100">
<rect width="16" height="16" fill="white"/>
</clipPath>
</defs>
</svg>
