<svg width="16" height="16" viewBox="0 0 16 16" fill="none" xmlns="http://www.w3.org/2000/svg">
<g clip-path="url(#clip0_9_3)">
<path d="M12.25 0H3.75C1.67893 0 0 1.67893 0 3.75V12.25C0 14.3211 1.67893 16 3.75 16H12.25C14.3211 16 16 14.3211 16 12.25V3.75C16 1.67893 14.3211 0 12.25 0Z" fill="#F03C2E"/>
<mask id="mask0_9_3" style="mask-type:luminance" maskUnits="userSpaceOnUse" x="1" y="1" width="14" height="14">
<path d="M1.75 1.75H14.25V14.25H1.75V1.75Z" fill="white"/>
</mask>
<g mask="url(#mask0_9_3)">
<path d="M14.0141 7.44338L8.55663 1.98594C8.4441 1.87329 8.30068 1.79658 8.14453 1.7655C7.98838 1.73443 7.82651 1.75039 7.67944 1.81138C7.58182 1.85189 7.49311 1.9112 7.41838 1.98594L6.28556 3.11875L7.72306 4.55625C8.05744 4.43906 8.44025 4.51913 8.70662 4.78556C8.83345 4.9126 8.92199 5.07274 8.96212 5.24771C9.00225 5.42267 8.99235 5.60539 8.93356 5.775L10.3191 7.16056C10.6543 7.04494 11.041 7.1195 11.3086 7.38788C11.4426 7.52184 11.5339 7.69256 11.5708 7.87843C11.6078 8.0643 11.5887 8.25696 11.5161 8.432C11.4188 8.66669 11.2323 8.85312 10.9975 8.95031C10.7628 9.0475 10.4991 9.04751 10.2643 8.95031C10.1481 8.90213 10.0424 8.83156 9.9535 8.74256C9.67225 8.46131 9.60275 8.04725 9.74494 7.70075L8.45275 6.40856V9.809C8.54655 9.8554 8.63228 9.9166 8.70662 9.99025C8.88627 10.1699 8.98719 10.4135 8.98719 10.6676C8.98719 10.9216 8.88627 11.1653 8.70662 11.3449C8.52698 11.5246 8.28333 11.6255 8.02928 11.6255C7.77523 11.6255 7.53158 11.5246 7.35194 11.3449C7.21787 11.211 7.12655 11.0403 7.08955 10.8545C7.05255 10.6686 7.07152 10.476 7.14406 10.3009C7.19224 10.1847 7.26288 10.0791 7.35194 9.99025C7.4445 9.89806 7.54725 9.82812 7.66563 9.78125V6.34919C7.54816 6.30119 7.4415 6.23015 7.35194 6.14025C7.21744 6.0059 7.126 5.83454 7.08927 5.64801C7.05254 5.46149 7.07218 5.26825 7.14569 5.09294L5.72775 3.67587L1.98556 7.41412C1.87291 7.5267 1.79618 7.67017 1.76508 7.82637C1.73399 7.98257 1.74992 8.14448 1.81088 8.29163C1.85141 8.3893 1.91077 8.47805 1.98556 8.55281L7.44338 14.0098C7.51811 14.0845 7.60682 14.1439 7.70444 14.1844C7.90171 14.2659 8.12329 14.2659 8.32056 14.1844C8.41818 14.1439 8.50689 14.0845 8.58162 14.0098L14.0141 8.586C14.0889 8.51126 14.1482 8.42251 14.1887 8.32482C14.2292 8.22714 14.25 8.12243 14.2501 8.01669C14.2501 7.91093 14.2292 7.80621 14.1887 7.70852C14.1482 7.61082 14.0889 7.52206 14.0141 7.44731" fill="white"/>
</g>
</g>
<defs>
<clipPath id="clip0_9_3">
<rect width="16" height="16" fill="white"/>
</clipPath>
</defs>
</svg>
