<svg width="16" height="16" viewBox="0 0 16 16" fill="none" xmlns="http://www.w3.org/2000/svg">
<g clip-path="url(#clip0_10_29)">
<path d="M12.25 0H3.75C1.67893 0 0 1.67893 0 3.75V12.25C0 14.3211 1.67893 16 3.75 16H12.25C14.3211 16 16 14.3211 16 12.25V3.75C16 1.67893 14.3211 0 12.25 0Z" fill="#326CE5"/>
<path d="M8.00457 1.875C7.90622 1.88183 7.8145 1.92702 7.74916 2.00084C7.68382 2.07465 7.6501 2.17118 7.65525 2.26962V2.36994C7.66482 2.4835 7.68188 2.596 7.70432 2.70744C7.73705 2.9209 7.74884 3.13705 7.7395 3.35281C7.71902 3.42393 7.6787 3.48773 7.62325 3.53675L7.61525 3.68719C7.39925 3.70531 7.18488 3.73838 6.97369 3.78638C6.08484 3.9867 5.27619 4.44821 4.65163 5.11163L4.52369 5.021C4.4889 5.03146 4.45239 5.03496 4.41625 5.03129C4.38011 5.02762 4.34504 5.01686 4.31307 4.99963C4.13992 4.87152 3.97968 4.72684 3.83463 4.56763C3.7618 4.48055 3.68398 4.39776 3.60157 4.31969L3.52263 4.25675C3.45228 4.20031 3.36584 4.16764 3.27575 4.16344C3.22197 4.16057 3.16828 4.17048 3.11906 4.19235C3.06984 4.21421 3.02649 4.24742 2.99257 4.28925C2.93476 4.37041 2.91151 4.47119 2.92791 4.56947C2.94432 4.66775 2.99904 4.75551 3.08007 4.8135L3.15363 4.87219C3.24833 4.93526 3.34663 4.99277 3.448 5.04444C3.63816 5.14964 3.81658 5.27478 3.98025 5.41775C4.02256 5.47803 4.04712 5.54896 4.05113 5.6225L4.16738 5.72919C3.5398 6.67125 3.28193 7.81177 3.44319 8.93219L3.29382 8.97488C3.25513 9.03684 3.20301 9.08932 3.14132 9.12844C2.93299 9.1841 2.71973 9.21929 2.50457 9.2335C2.3904 9.23589 2.27647 9.2448 2.16332 9.26019L2.06888 9.2815H2.05825C2.00925 9.28828 1.96219 9.30517 1.92005 9.3311C1.87791 9.35702 1.84162 9.39141 1.81347 9.4321C1.78532 9.47278 1.76593 9.51887 1.75652 9.56744C1.74711 9.616 1.74789 9.666 1.75882 9.71425C1.77334 9.77878 1.80554 9.83799 1.85182 9.88525C1.89849 9.93227 1.95732 9.96539 2.02173 9.98092C2.08614 9.99644 2.15359 9.99377 2.21657 9.97319H2.2235L2.3195 9.96256C2.42801 9.93013 2.53451 9.89131 2.63844 9.84631C2.83861 9.76584 3.04615 9.70511 3.25813 9.665C3.33149 9.66918 3.40216 9.69412 3.46188 9.73694L3.62188 9.71031C3.96831 10.7858 4.69687 11.6971 5.66975 12.2718L5.60469 12.4078C5.63458 12.4701 5.6457 12.5397 5.63669 12.6082C5.54856 12.8123 5.44085 13.0074 5.31507 13.1906C5.24608 13.2817 5.18235 13.3766 5.12419 13.4749L5.07882 13.5709C5.05424 13.6136 5.03875 13.6609 5.03331 13.7098C5.02787 13.7588 5.03261 13.8083 5.04722 13.8553C5.06183 13.9024 5.086 13.9459 5.11822 13.9831C5.15044 14.0204 5.19001 14.0506 5.23444 14.0718C5.29386 14.1002 5.36 14.1116 5.4255 14.1047C5.49116 14.0973 5.55348 14.0719 5.60554 14.0312C5.6576 13.9905 5.69737 13.9362 5.72044 13.8743L5.76463 13.7837C5.80505 13.6773 5.83925 13.5687 5.86707 13.4584C5.96144 13.2253 6.01269 12.9752 6.14169 12.8205C6.18387 12.7808 6.23705 12.7548 6.29425 12.7459L6.37425 12.6003C7.42872 13.0056 8.59551 13.0084 9.65194 12.6082L9.72282 12.7443C9.79535 12.7553 9.86056 12.7946 9.90419 12.8536C10.0041 13.0444 10.0856 13.2445 10.1474 13.4509C10.1756 13.5614 10.2102 13.6702 10.2508 13.7767L10.2951 13.8674C10.3125 13.9135 10.3393 13.9555 10.3737 13.9908C10.4082 14.026 10.4495 14.0538 10.4952 14.0723C10.5409 14.0908 10.5899 14.0997 10.6392 14.0983C10.6885 14.097 10.737 14.0855 10.7816 14.0645C10.8413 14.0365 10.892 13.9924 10.9281 13.9373C10.964 13.8818 10.9838 13.8175 10.9853 13.7515C10.9868 13.6856 10.9699 13.6204 10.9366 13.5634L10.8903 13.4674C10.8322 13.3694 10.7684 13.2749 10.6993 13.1842C10.5767 13.0072 10.4711 12.8184 10.3793 12.6206C10.3707 12.5844 10.3695 12.5468 10.3758 12.5102C10.382 12.4735 10.3956 12.4385 10.4156 12.4072C10.3929 12.3606 10.3731 12.3127 10.3564 12.2638C11.3272 11.6848 12.0525 10.7704 12.3953 9.69325L12.5467 9.71988C12.601 9.6705 12.6723 9.64413 12.7456 9.64631C12.9573 9.68681 13.1648 9.75294 13.3653 9.82763C13.4689 9.87524 13.5754 9.91622 13.6842 9.95031C13.7098 9.95725 13.7471 9.96306 13.7759 9.97H13.7829C13.8458 9.99038 13.9132 9.99287 13.9774 9.97719C14.0417 9.9615 14.1003 9.92827 14.1468 9.88119C14.1934 9.83417 14.2259 9.77511 14.2408 9.71062C14.2558 9.64619 14.2525 9.57887 14.2314 9.51619C14.2098 9.45355 14.1713 9.39814 14.12 9.35613C14.0688 9.31413 14.0069 9.28719 13.9413 9.27831L13.8378 9.25381C13.7246 9.23843 13.6107 9.22952 13.4965 9.22713C13.2813 9.21332 13.068 9.17812 12.8598 9.12206C12.7954 9.08603 12.7422 9.03288 12.7061 8.9685L12.5621 8.92581C12.7157 7.80588 12.4527 6.66854 11.823 5.72975L11.9489 5.6135C11.9438 5.54024 11.9675 5.46787 12.015 5.41187C12.1786 5.27144 12.3554 5.14714 12.5429 5.04069C12.6443 4.9889 12.7425 4.93139 12.8373 4.86844L12.9152 4.8055C12.958 4.77887 12.9948 4.74348 13.0229 4.70165C13.0511 4.65982 13.0701 4.61249 13.0787 4.56279C13.0873 4.51308 13.0853 4.46212 13.0728 4.41325C13.0603 4.36439 13.0376 4.31872 13.0062 4.27925C12.9748 4.2398 12.9353 4.20745 12.8905 4.18433C12.8457 4.16122 12.7965 4.14785 12.7461 4.14512C12.6958 4.14238 12.6454 4.15034 12.5983 4.16847C12.5513 4.18661 12.5086 4.2145 12.4731 4.25031L12.3942 4.31325C12.3119 4.39144 12.2341 4.47424 12.1611 4.56125C12.0204 4.72217 11.8644 4.86916 11.6955 5.00019C11.6273 5.028 11.5527 5.03612 11.4801 5.02362L11.3451 5.11963C10.5661 4.30318 9.51722 3.79721 8.39332 3.69569C8.39332 3.64238 8.38638 3.56238 8.38532 3.53731C8.32488 3.49579 8.28314 3.43222 8.26907 3.36025C8.26159 3.14486 8.27516 2.92925 8.30957 2.7165C8.3325 2.60456 8.3485 2.49256 8.35863 2.379V2.27231C8.36385 2.17385 8.33015 2.07729 8.26479 2.00346C8.19944 1.92963 8.10768 1.88446 8.00932 1.87769L8.00457 1.875ZM7.55975 4.63L7.45313 6.49288H7.44513C7.43975 6.60806 7.37207 6.70619 7.26807 6.76169C7.16407 6.81712 7.04088 6.80062 6.94807 6.73287L5.42013 5.65025C5.90646 5.17261 6.51656 4.84033 7.18163 4.69088C7.3062 4.66421 7.43205 4.64392 7.55869 4.63006L7.55975 4.63ZM8.44932 4.63C9.25181 4.72989 9.99935 5.09037 10.5772 5.65613L9.06369 6.73181C9.01783 6.76838 8.96263 6.79136 8.90437 6.79815C8.8461 6.80493 8.7871 6.79524 8.73407 6.77019C8.68106 6.74503 8.63616 6.7055 8.60449 6.65611C8.57282 6.60671 8.55563 6.54942 8.55488 6.49075L8.44932 4.63ZM4.86557 6.351L6.26275 7.59788V7.60588C6.30539 7.64319 6.33712 7.69135 6.35458 7.74525C6.37205 7.79915 6.37459 7.85677 6.36194 7.912C6.34923 7.96713 6.32186 8.01779 6.28271 8.05863C6.24357 8.09947 6.19411 8.12897 6.13957 8.144V8.14931L4.34663 8.665C4.25787 7.85723 4.44061 7.0429 4.866 6.3505L4.86557 6.351ZM11.1334 6.351C11.558 7.04154 11.7456 7.85176 11.6678 8.65862L9.87219 8.14131V8.13437C9.81745 8.11973 9.76777 8.09036 9.72856 8.04945C9.68934 8.00855 9.66209 7.95768 9.64975 7.90238C9.63733 7.84715 9.63999 7.78959 9.65745 7.73575C9.67491 7.6819 9.70653 7.63374 9.749 7.59631L11.1356 6.35531L11.1334 6.351ZM7.71813 7.69494H8.28988L8.63919 8.13863L8.51225 8.69331L7.99869 8.94019L7.484 8.69331L7.36294 8.13863L7.71813 7.69494ZM9.5495 9.20844C9.57343 9.20582 9.59758 9.20582 9.6215 9.20844L11.4705 9.52044C11.2038 10.2884 10.6774 10.9444 9.99057 11.3833L9.27594 9.65325C9.25621 9.60686 9.248 9.55638 9.252 9.50613C9.25798 9.43032 9.29118 9.35923 9.34547 9.30599C9.39976 9.25275 9.47147 9.22094 9.54738 9.21644L9.5495 9.20844ZM6.44407 9.21644C6.4955 9.21732 6.54594 9.23082 6.59094 9.25574C6.63594 9.28066 6.67415 9.31625 6.70219 9.35938C6.7302 9.40242 6.74714 9.45172 6.75151 9.50289C6.75588 9.55406 6.74755 9.60551 6.72725 9.65269V9.65963L6.01694 11.3758C5.3371 10.9399 4.82008 10.2919 4.54607 9.53219L6.379 9.22125C6.39938 9.21912 6.42 9.21912 6.44088 9.22125L6.44407 9.21644ZM7.99282 9.96306C8.05107 9.96127 8.10869 9.97567 8.15924 10.0047C8.2098 10.0337 8.25133 10.0761 8.27919 10.1273H8.28613L9.18957 11.7576L8.8285 11.8643C8.16377 12.0163 7.46986 11.9805 6.82432 11.7609L7.73094 10.1306C7.78588 10.0346 7.88719 9.97587 7.99763 9.97319L7.99282 9.96306Z" fill="white" stroke="white" stroke-width="0.006875"/>
</g>
<defs>
<clipPath id="clip0_10_29">
<rect width="16" height="16" fill="white"/>
</clipPath>
</defs>
</svg>
