<svg width="16" height="16" viewBox="0 0 16 16" fill="none" xmlns="http://www.w3.org/2000/svg">
<g clip-path="url(#clip0_13_74)">
<path d="M14.613 12.3112L8.42936 15.884C8.29898 15.9599 8.15083 15.9998 7.99999 15.9998C7.84914 15.9998 7.70099 15.9599 7.57061 15.884L1.38699 12.3114C1.12074 12.1567 0.957611 11.8734 0.957611 11.5726V4.42737C0.957611 4.11825 1.12074 3.84337 1.38699 3.68875L7.57061 0.115998C7.70099 0.0401338 7.84914 0.000167847 7.99999 0.000167847C8.15083 0.000167847 8.29898 0.0401338 8.42936 0.115998L14.613 3.68862C14.8792 3.84325 15.0424 4.12662 15.0424 4.42737V11.5727C15.0339 11.8734 14.8706 12.1566 14.613 12.3112Z" fill="#8D6748"/>
<path d="M7.99139 1.08624C7.86264 1.08624 7.73376 1.12087 7.62201 1.18949L2.28014 4.27274C2.04826 4.40149 1.91101 4.65049 1.91101 4.90824V11.0745C1.91101 11.3407 2.04826 11.5814 2.28014 11.7102L7.62201 14.7934C7.73376 14.8621 7.86251 14.8964 7.99139 14.8964C8.12014 14.8964 8.24914 14.8621 8.36076 14.7934L13.7026 11.7102C13.9345 11.5815 14.072 11.3322 14.072 11.0746V4.90824C14.072 4.64199 13.9345 4.40149 13.7026 4.27274L8.36076 1.18949C8.2495 1.12171 8.12167 1.08602 7.99139 1.08637V1.08624ZM7.99139 1.34399C8.07726 1.34399 8.15464 1.36987 8.23189 1.41274L13.5738 4.49599C13.6467 4.53954 13.7071 4.60116 13.7492 4.67489C13.7913 4.74861 13.8137 4.83196 13.8143 4.91687V11.0831C13.8143 11.255 13.7198 11.4181 13.5738 11.504L8.23189 14.5872C8.15464 14.6301 8.07726 14.656 7.99139 14.656C7.90643 14.6556 7.82322 14.6318 7.75089 14.5872L2.40901 11.504C2.33613 11.4605 2.27572 11.3989 2.23359 11.3252C2.19146 11.2515 2.16905 11.1681 2.16851 11.0832V4.91687C2.16851 4.74499 2.26301 4.58187 2.40901 4.49599L7.75089 1.41274C7.82826 1.36987 7.91414 1.34399 7.99139 1.34399ZM8.02139 3.76587C7.90976 3.90337 7.72089 4.04937 7.92701 4.35849C7.99576 4.43574 8.03001 4.59899 8.02151 4.65049C8.02151 4.65049 8.33064 4.47024 8.14164 4.14387C8.03001 3.97212 7.97839 3.82599 8.02139 3.76587ZM7.67801 4.08374C7.60064 4.17824 7.48051 4.27262 7.61789 4.48737C7.66076 4.53024 7.67789 4.64199 7.67789 4.67637C7.67789 4.67637 7.88414 4.55612 7.75539 4.33287C7.67801 4.22124 7.64376 4.11812 7.67801 4.08374ZM7.05089 4.82249C7.02815 4.82253 7.00636 4.83157 6.99029 4.84764C6.97421 4.86372 6.96517 4.88551 6.96514 4.90824C6.96514 5.20024 7.00801 6.20499 7.43751 6.69449C7.44502 6.70291 7.45429 6.70959 7.46465 6.71406C7.47501 6.71853 7.48623 6.72068 7.49751 6.72037H8.21901C8.23029 6.72063 8.2415 6.71847 8.25187 6.71403C8.26225 6.70959 8.27154 6.70297 8.27914 6.69462C8.70864 6.21362 8.75151 5.20874 8.75151 4.90824C8.75141 4.88548 8.74232 4.86367 8.7262 4.84759C8.71009 4.8315 8.68828 4.82243 8.66551 4.82237L7.05089 4.82249ZM7.30001 5.08849H8.43376C8.45653 5.08859 8.47833 5.09769 8.49442 5.1138C8.51051 5.12991 8.51957 5.15173 8.51964 5.17449C8.51964 5.41499 8.47664 6.09324 8.18464 6.44549C8.15889 6.46262 8.14176 6.47137 8.11601 6.47137H7.60926C7.59796 6.4717 7.58672 6.46956 7.57633 6.46509C7.56595 6.46062 7.55666 6.45393 7.54914 6.44549C7.25714 6.10199 7.22289 5.41499 7.21414 5.17449C7.2142 5.15173 7.22327 5.12991 7.23935 5.1138C7.25544 5.09769 7.27724 5.08859 7.30001 5.08849ZM8.38214 5.67249C8.38214 5.67249 8.37364 5.74999 8.16751 5.82724C7.88414 5.93024 7.38601 5.86149 7.38601 5.86149C7.42889 6.04187 7.49751 6.21362 7.60064 6.34249C7.60926 6.35962 7.63489 6.36812 7.65214 6.36812H8.08164C8.09872 6.36812 8.11589 6.35958 8.13314 6.34249C8.27914 6.17074 8.34789 5.90437 8.38214 5.67249ZM2.52501 6.09337V6.18799H6.91376C6.91376 6.15362 6.90514 6.12774 6.90514 6.09337H2.52501ZM8.82026 6.09337C8.82026 6.12774 8.81164 6.15362 8.81164 6.18799H13.475V6.09337H8.82026ZM5.98601 7.02949C5.85726 7.02949 5.73689 7.04662 5.62526 7.09824C5.51364 7.14112 5.41914 7.20987 5.34189 7.28712C5.26067 7.36807 5.19642 7.46441 5.15289 7.57049C5.11001 7.68224 5.08439 7.79374 5.08439 7.91399V7.92274C5.08439 8.04287 5.11001 8.16324 5.15289 8.26637C5.19589 8.37795 5.25601 8.47241 5.33326 8.54974C5.41051 8.62699 5.50514 8.69574 5.61676 8.73862C5.73174 8.78356 5.85406 8.80683 5.97751 8.80724C6.10626 8.80724 6.22639 8.79024 6.33814 8.73862C6.44976 8.69574 6.54439 8.62699 6.62164 8.54974C6.70285 8.46879 6.7671 8.37245 6.81064 8.26637C6.85351 8.15462 6.87914 8.04287 6.87914 7.92262V7.91399C6.8787 7.79614 6.85544 7.6795 6.81064 7.57049C6.76764 7.45891 6.70751 7.36445 6.63026 7.28712C6.55301 7.20987 6.45839 7.14112 6.34676 7.09824C6.23179 7.05325 6.10947 7.02994 5.98601 7.02949ZM8.35639 7.02949C8.21889 7.02949 8.10739 7.05524 7.99576 7.09824C7.88414 7.14112 7.78951 7.20987 7.71226 7.28712C7.63659 7.37073 7.5756 7.46654 7.53189 7.57049C7.48704 7.67949 7.46374 7.79614 7.46326 7.91399V7.92274C7.46326 8.04287 7.48889 8.15462 7.53189 8.26637C7.5748 8.37795 7.63493 8.47241 7.71226 8.54974C7.78951 8.62699 7.88414 8.69574 7.98726 8.73862C8.09593 8.7844 8.21272 8.80774 8.33064 8.80724C8.40801 8.80724 8.48526 8.80724 8.56251 8.79012C8.62264 8.78162 8.69126 8.75587 8.74289 8.73012C8.79439 8.70424 8.84589 8.67837 8.89739 8.63549C8.94889 8.59262 8.99189 8.55812 9.03489 8.50662L8.83739 8.30912C8.76001 8.37787 8.68276 8.42937 8.61401 8.47237C8.54526 8.51524 8.45101 8.53237 8.34789 8.53237C8.27064 8.53237 8.19314 8.50674 8.12451 8.48099C8.05576 8.45524 7.99564 8.40362 7.94414 8.35212C7.89264 8.29199 7.84964 8.23187 7.82389 8.15462C7.79814 8.07712 7.78101 7.99987 7.78101 7.91399V7.90562C7.78101 7.82824 7.79814 7.75087 7.82389 7.67349C7.85826 7.60474 7.89264 7.53624 7.94414 7.48474C7.9969 7.43235 8.05782 7.38887 8.12451 7.35599C8.19326 7.32149 8.26201 7.30437 8.34789 7.30437C8.45101 7.30437 8.53664 7.32162 8.61414 7.36449C8.69098 7.40825 8.76297 7.46004 8.82889 7.51899L9.02639 7.29574C8.98339 7.25287 8.94039 7.21849 8.89739 7.18412C8.85451 7.14974 8.80301 7.12399 8.75151 7.09824C8.69151 7.08099 8.63989 7.06387 8.57114 7.04674C8.50239 7.03799 8.43364 7.02949 8.35639 7.02949ZM12.393 7.05524L11.6371 8.78149H11.9464L12.1266 8.36937H12.9339L13.1059 8.78162H13.4234L12.6678 7.05537L12.393 7.05524ZM2.73964 7.06399V8.79024H3.04026V7.56187L3.57276 8.36062H3.58139L4.12239 7.55349V8.78162H4.42301V7.06374H4.10526L3.58126 7.87124L3.05739 7.06399H2.73964ZM9.63614 7.06399V8.78149H9.93664V8.06012H10.7611V8.78162H11.0618V7.06374H10.7611V7.77662H9.93664V7.06374L9.63614 7.06399ZM5.97751 7.30424C6.06343 7.30424 6.14072 7.32141 6.20939 7.35574C6.27609 7.38866 6.337 7.43218 6.38976 7.48462C6.44126 7.54474 6.48426 7.60474 6.51001 7.68212C6.53576 7.75937 6.55289 7.83662 6.55289 7.92249V7.93124C6.55289 8.00837 6.53576 8.08574 6.51001 8.16299C6.47564 8.23174 6.44126 8.30049 6.38976 8.35199C6.33699 8.40438 6.27608 8.44786 6.20939 8.48074C6.14064 8.51516 6.06334 8.53237 5.97751 8.53237C5.90026 8.53237 5.81426 8.51524 5.74551 8.48087C5.67885 8.44794 5.61798 8.40442 5.56526 8.35199C5.51376 8.29187 5.47089 8.23174 5.44514 8.15449C5.41926 8.07699 5.40201 7.99974 5.40201 7.91387V7.90549C5.40201 7.82812 5.41926 7.75074 5.44514 7.67337C5.47939 7.60462 5.51389 7.53612 5.56526 7.48462C5.61799 7.43224 5.67886 7.38876 5.74551 7.35587C5.81434 7.32145 5.89168 7.30424 5.97751 7.30424ZM12.5303 7.41587L12.8223 8.10287H12.2383L12.5303 7.41587ZM2.52501 9.32262V9.41699H13.475V9.32262H2.52501Z" fill="white"/>
</g>
<defs>
<clipPath id="clip0_13_74">
<rect width="16" height="16" fill="white"/>
</clipPath>
</defs>
</svg>
