<svg width="16" height="16" viewBox="0 0 16 16" fill="none" xmlns="http://www.w3.org/2000/svg">
<g clip-path="url(#clip0_14_135)">
<path d="M12.25 0H3.75C1.67893 0 0 1.67893 0 3.75V12.25C0 14.3211 1.67893 16 3.75 16H12.25C14.3211 16 16 14.3211 16 12.25V3.75C16 1.67893 14.3211 0 12.25 0Z" fill="#023430"/>
<path d="M10.6983 6.72444C10.0397 3.81938 8.66724 3.046 8.31712 2.49931C8.17266 2.25852 8.04476 2.00817 7.9343 1.75C7.9158 2.00813 7.8818 2.17062 7.66243 2.36637C7.22199 2.75906 5.35137 4.28344 5.19393 7.58425C5.04724 10.6619 7.45643 12.5596 7.77468 12.7557C8.01943 12.8762 8.31749 12.7583 8.46293 12.6477C9.62424 11.8507 11.211 9.72588 10.6996 6.72444" fill="#10AA50"/>
<path d="M8.03406 11.1169C7.97344 11.8787 7.93 12.3213 7.776 12.7566C7.776 12.7566 7.87706 13.4818 7.94806 14.25H8.19925C8.25925 13.709 8.35073 13.172 8.47325 12.6417C8.14806 12.4817 8.04656 11.7854 8.03406 11.1169Z" fill="#B8C4C2"/>
<path d="M8.4728 12.6422C8.14418 12.4904 8.04912 11.7793 8.03449 11.1169C8.11571 10.0243 8.13941 8.92805 8.10549 7.83288C8.08824 7.25825 8.11362 2.5105 7.96393 1.81538C8.06627 2.05084 8.18426 2.27918 8.31712 2.49888C8.66724 3.046 10.0402 3.81938 10.6983 6.72444C11.211 9.72075 9.63287 11.84 8.4728 12.6422Z" fill="#12924F"/>
</g>
<defs>
<clipPath id="clip0_14_135">
<rect width="16" height="16" fill="white"/>
</clipPath>
</defs>
</svg>
