<svg width="16" height="16" viewBox="0 0 16 16" fill="none" xmlns="http://www.w3.org/2000/svg">
<g clip-path="url(#clip0_10_42)">
<path d="M12.25 0H3.75C1.67893 0 0 1.67893 0 3.75V12.25C0 14.3211 1.67893 16 3.75 16H12.25C14.3211 16 16 14.3211 16 12.25V3.75C16 1.67893 14.3211 0 12.25 0Z" fill="#242938"/>
<path d="M10.7992 6.08781L10.7946 6.08588C10.7921 6.08488 10.7894 6.08394 10.7871 6.08163C10.7834 6.07762 10.7806 6.0728 10.779 6.06754C10.7774 6.06228 10.7771 6.05673 10.778 6.05131L11.03 4.51063L12.2118 5.69269L10.9827 6.21563C10.9794 6.21706 10.9757 6.21772 10.972 6.21756H10.9671C10.9647 6.21604 10.9625 6.21419 10.9606 6.21206C10.9148 6.16117 10.8601 6.11907 10.7992 6.08781ZM12.5133 5.99394L13.7769 7.2575C14.0394 7.52031 14.1707 7.65131 14.2187 7.80325C14.2258 7.82575 14.2317 7.84825 14.2362 7.87138L11.2165 6.5925L11.2116 6.5905C11.1996 6.58563 11.1855 6.58006 11.1855 6.56769C11.1855 6.55531 11.1999 6.54944 11.2119 6.54456L11.2158 6.54294L12.5133 5.99394ZM14.1847 8.27694C14.1196 8.3995 13.9924 8.52669 13.7773 8.74213L12.3526 10.1664L10.5101 9.78275L10.5002 9.78081C10.4839 9.77819 10.4667 9.77525 10.4667 9.76056C10.4597 9.68456 10.4371 9.61081 10.4004 9.54391C10.3636 9.47701 10.3135 9.41839 10.2531 9.37169C10.2456 9.36419 10.2476 9.35244 10.2499 9.34169C10.2499 9.34006 10.2499 9.33844 10.2506 9.33713L10.5971 7.20963L10.5984 7.20244C10.6004 7.18613 10.6032 7.16725 10.6179 7.16725C10.6922 7.15803 10.7639 7.1341 10.8288 7.09688C10.8938 7.05965 10.9506 7.00987 10.9961 6.95044C10.9991 6.94719 11.001 6.94356 11.0049 6.94163C11.0154 6.93675 11.0277 6.94163 11.0385 6.94619L14.1844 8.27694H14.1847ZM12.025 10.4941L9.68231 12.8368L10.0833 10.3722L10.0839 10.3689C10.0843 10.3657 10.0849 10.3625 10.0859 10.3594C10.0892 10.3516 10.0976 10.3484 10.1058 10.3451L10.1097 10.3435C10.1975 10.306 10.2752 10.2483 10.3363 10.1749C10.3441 10.1658 10.3536 10.157 10.3656 10.1554C10.3688 10.1549 10.3719 10.1549 10.3751 10.1554L12.0246 10.4944L12.025 10.4941ZM9.18644 13.3326L8.92237 13.5967L6.003 9.3775L5.99975 9.37294C5.99525 9.36675 5.99038 9.36056 5.99131 9.35338C5.99163 9.34819 5.99487 9.34363 5.9985 9.33969L6.00175 9.3355C6.0105 9.32244 6.018 9.30938 6.02619 9.29538L6.03269 9.28394L6.03369 9.283C6.03825 9.27519 6.04244 9.26769 6.05031 9.26344C6.05719 9.26019 6.06656 9.2615 6.07406 9.26313L9.30838 9.93013C9.31743 9.93151 9.32598 9.93521 9.33319 9.94088C9.33744 9.94513 9.33837 9.94969 9.33937 9.95487C9.36191 10.0402 9.40389 10.1192 9.46203 10.1857C9.52017 10.2521 9.59288 10.3043 9.6745 10.3379C9.68363 10.3425 9.67969 10.3526 9.6755 10.3634C9.67342 10.3681 9.67177 10.373 9.67056 10.3781C9.62981 10.6258 9.28038 12.7572 9.18644 13.3326ZM8.63488 13.8839C8.44025 14.0766 8.3255 14.1786 8.19575 14.2197C8.06781 14.2601 7.93051 14.2601 7.80256 14.2197C7.65069 14.1714 7.51931 14.0404 7.25688 13.7776L4.32513 10.8459L5.09088 9.65819C5.09415 9.65225 5.09859 9.64704 5.10394 9.64288C5.11206 9.637 5.12381 9.63963 5.13363 9.64288C5.30938 9.69594 5.49806 9.68638 5.66756 9.61581C5.67637 9.61256 5.68519 9.61031 5.69206 9.6165C5.69544 9.61963 5.69848 9.62311 5.70119 9.62694L8.63488 13.8842V13.8839ZM4.04244 10.5632L3.36994 9.89069L4.69806 9.32406C4.70143 9.32253 4.70511 9.32176 4.70881 9.32181C4.71988 9.32181 4.72644 9.33288 4.73231 9.343C4.74565 9.3635 4.75977 9.38348 4.77469 9.40294L4.77887 9.40819C4.78281 9.41369 4.78019 9.41925 4.77631 9.4245L4.04275 10.5632H4.04244ZM3.07225 9.593L2.22137 8.74213C2.07669 8.59738 1.97169 8.49244 1.89863 8.40213L4.48581 8.93875L4.49563 8.94038C4.51156 8.94294 4.52919 8.94588 4.52919 8.96088C4.52919 8.97719 4.50994 8.98469 4.49363 8.99088L4.48612 8.99413L3.07225 9.593ZM1.75 7.96463C1.75294 7.90981 1.76281 7.85559 1.77937 7.80325C1.82756 7.65131 1.95862 7.52031 2.22137 7.2575L3.31025 6.16869C3.81161 6.89628 4.31432 7.62295 4.81838 8.34869C4.82713 8.36038 4.83694 8.37344 4.82681 8.38319C4.77925 8.43569 4.73162 8.49306 4.69806 8.55538C4.69442 8.56338 4.68881 8.57032 4.68175 8.57556C4.6775 8.57819 4.673 8.57719 4.668 8.57619H4.66738L1.75 7.96431V7.96463ZM3.60169 5.87725L5.06575 4.41313C5.20338 4.47344 5.70412 4.685 6.152 4.87413C6.49106 5.01756 6.80013 5.14794 6.89725 5.19038C6.90706 5.19425 6.91588 5.19819 6.92006 5.20794C6.92269 5.21381 6.92138 5.22131 6.92006 5.2275C6.89696 5.33319 6.90044 5.44295 6.93019 5.54696C6.95995 5.65097 7.01505 5.74597 7.09056 5.82344C7.10037 5.83325 7.09056 5.84719 7.08213 5.85931L7.07756 5.86619L5.591 8.16869C5.58775 8.17521 5.58291 8.18082 5.57694 8.185C5.56913 8.18988 5.55806 8.18763 5.54894 8.18531C5.49109 8.17024 5.43165 8.16214 5.37187 8.16119C5.31844 8.16119 5.26037 8.171 5.20175 8.18175H5.20138C5.19488 8.18275 5.189 8.184 5.18381 8.18013C5.17805 8.17542 5.17309 8.1698 5.16913 8.1635L3.60169 5.87725ZM5.3615 4.11744L7.25688 2.22206C7.51931 1.95963 7.65069 1.82831 7.80256 1.78031C7.9305 1.73984 8.06781 1.73984 8.19575 1.78031C8.34769 1.82825 8.47906 1.95969 8.7415 2.22206L9.15225 2.63281L7.80419 4.72056C7.80088 4.72664 7.79635 4.73196 7.79087 4.73619C7.78269 4.74181 7.77131 4.7395 7.7615 4.73619C7.65522 4.70394 7.54268 4.69808 7.43361 4.71909C7.32455 4.74011 7.22225 4.78738 7.13556 4.85681C7.12675 4.86594 7.11375 4.86075 7.10262 4.85588C6.92662 4.77925 5.55737 4.20063 5.3615 4.11744ZM9.4385 2.91906L10.6831 4.16375L10.3833 6.02131V6.02619C10.3829 6.03043 10.382 6.03461 10.3806 6.03863C10.3774 6.04513 10.3708 6.04644 10.3643 6.04838C10.3002 6.06775 10.2398 6.09784 10.1857 6.13738C10.1834 6.13908 10.1812 6.14094 10.1791 6.14294C10.1756 6.14681 10.172 6.15044 10.1661 6.15106C10.1613 6.15122 10.1566 6.15045 10.1521 6.14881L8.25537 5.34294L8.25181 5.34125C8.23975 5.33638 8.22544 5.3305 8.22544 5.31813C8.21422 5.21244 8.1797 5.11056 8.12438 5.01981C8.11525 5.00481 8.10513 4.98919 8.11294 4.97388L9.4385 2.91906ZM8.15662 5.72469L9.93462 6.47775C9.94444 6.48231 9.95519 6.4865 9.95944 6.49663C9.96112 6.50269 9.96112 6.50913 9.95944 6.51519C9.95335 6.54338 9.95006 6.5721 9.94963 6.60094V6.65081C9.94963 6.66325 9.93694 6.66844 9.92519 6.67331L9.92163 6.67463C9.63994 6.79494 5.96719 8.36106 5.96163 8.36106C5.95606 8.36106 5.95025 8.36106 5.94469 8.3555C5.93494 8.34575 5.94469 8.33206 5.95344 8.31963C5.95502 8.3175 5.95656 8.31533 5.95806 8.31313L7.41919 6.05063L7.42181 6.04675C7.43031 6.033 7.44006 6.01775 7.45569 6.01775L7.47038 6.02C7.50363 6.02456 7.533 6.02881 7.56262 6.02881C7.78431 6.02881 7.98969 5.92094 8.11356 5.73638C8.11659 5.7315 8.12034 5.72712 8.12469 5.72338C8.1335 5.71681 8.1465 5.72019 8.15662 5.72469ZM6.12038 8.71894L10.1237 7.01169C10.1237 7.01169 10.1296 7.01169 10.1351 7.01719C10.157 7.03906 10.1756 7.05369 10.1935 7.06738L10.2023 7.07294C10.2104 7.0775 10.2186 7.08275 10.2192 7.09119C10.2192 7.09444 10.2193 7.09644 10.2186 7.09938L9.87562 9.206L9.87431 9.21444C9.87206 9.23075 9.86975 9.24938 9.85444 9.24938C9.76299 9.25546 9.6744 9.28379 9.5964 9.33191C9.5184 9.38004 9.45333 9.44649 9.40687 9.5255L9.40519 9.52806C9.40063 9.53556 9.39644 9.54275 9.38894 9.54669C9.38206 9.54994 9.37325 9.54863 9.36613 9.547L6.17356 8.88844C6.17031 8.88781 6.12394 8.71925 6.12038 8.71894Z" fill="url(#paint0_radial_10_42)"/>
</g>
<defs>
<radialGradient id="paint0_radial_10_42" cx="0" cy="0" r="1" gradientUnits="userSpaceOnUse" gradientTransform="translate(1.34067 7.82888) rotate(90) scale(12.4863 14.4158)">
<stop stop-color="#20C6B7"/>
<stop offset="1" stop-color="#4D9ABF"/>
</radialGradient>
<clipPath id="clip0_10_42">
<rect width="16" height="16" fill="white"/>
</clipPath>
</defs>
</svg>
