<svg width="16" height="16" viewBox="0 0 16 16" fill="none" xmlns="http://www.w3.org/2000/svg">
<g clip-path="url(#clip0_10_33)">
<path d="M12.25 0H3.75C1.67893 0 0 1.67893 0 3.75V12.25C0 14.3211 1.67893 16 3.75 16H12.25C14.3211 16 16 14.3211 16 12.25V3.75C16 1.67893 14.3211 0 12.25 0Z" fill="#242938"/>
<path d="M7.49238 1.94474C7.79982 1.76881 8.20019 1.76799 8.50732 1.94474C10.0524 2.81787 11.5981 3.68956 13.1429 4.56318C13.4336 4.72687 13.6279 5.05024 13.6249 5.38506V10.6379C13.6271 10.9866 13.4136 11.3177 13.107 11.4776C11.5669 12.3459 10.0276 13.2152 8.48782 14.0836C8.17413 14.2629 7.76569 14.2491 7.46169 14.055C7.00001 13.7874 6.53751 13.521 6.07576 13.2536C5.98138 13.1974 5.87501 13.1526 5.80838 13.0611C5.86732 12.9817 5.97263 12.9719 6.05819 12.9372C6.25088 12.8759 6.42794 12.7775 6.60494 12.6821C6.64976 12.6514 6.70438 12.6632 6.74732 12.6906C7.14213 12.9169 7.53351 13.1499 7.92963 13.3741C8.01413 13.4229 8.09969 13.3581 8.17194 13.3179C9.68319 12.4637 11.1963 11.6128 12.7074 10.7584C12.7634 10.7314 12.7943 10.672 12.7898 10.6107C12.7908 8.87787 12.79 7.14481 12.7903 5.41193C12.7967 5.34243 12.7564 5.27843 12.6935 5.24993C11.1588 4.38562 9.62482 3.52006 8.09038 2.65556C8.0638 2.63729 8.03231 2.62749 8.00006 2.62743C7.9678 2.62737 7.93628 2.63707 7.90963 2.65524C6.37513 3.52006 4.84151 4.38649 3.30701 5.25068C3.24432 5.27924 3.20226 5.34218 3.20969 5.41193C3.21001 7.14481 3.20969 8.87787 3.20969 10.6109C3.20701 10.6409 3.21358 10.6709 3.22851 10.697C3.24345 10.7231 3.26602 10.744 3.29319 10.7568C3.70263 10.989 4.11263 11.2196 4.52238 11.451C4.75326 11.5752 5.03663 11.6491 5.29101 11.5539C5.51538 11.4734 5.67269 11.2443 5.66844 11.0061C5.67057 9.28337 5.66738 7.56043 5.67001 5.83793C5.66438 5.76149 5.73694 5.69831 5.81132 5.70556C6.00807 5.70418 6.20507 5.70287 6.40182 5.70606C6.48394 5.70418 6.54044 5.78656 6.53032 5.86356C6.52951 7.59718 6.53244 9.3308 6.52901 11.0644C6.52951 11.5264 6.33969 12.0292 5.91232 12.2552C5.38588 12.5279 4.73513 12.4701 4.21501 12.2086C3.76476 11.9839 3.33501 11.7186 2.89276 11.4779C2.58538 11.3188 2.37288 10.9864 2.37507 10.6379V5.38506C2.37182 5.04331 2.57394 4.71406 2.87351 4.55274C4.41332 3.68381 5.95288 2.81412 7.49238 1.94474Z" fill="#81CD39"/>
<path d="M8.83575 5.58343C9.50731 5.54018 10.2262 5.55781 10.8306 5.88868C11.2985 6.14218 11.5579 6.67431 11.5661 7.19412C11.5531 7.26418 11.4797 7.30287 11.4128 7.29806C11.218 7.29781 11.0231 7.30075 10.8282 7.29675C10.7456 7.29993 10.6976 7.22375 10.6872 7.15068C10.6312 6.90193 10.4955 6.65562 10.2614 6.53562C9.90206 6.35575 9.48543 6.36481 9.09356 6.36856C8.8075 6.38368 8.49987 6.4085 8.2575 6.57668C8.07143 6.70412 8.01493 6.96137 8.08131 7.16856C8.14393 7.31731 8.31562 7.36531 8.45618 7.40956C9.2655 7.62125 10.1231 7.60012 10.917 7.87868C11.2457 7.99225 11.5672 8.21306 11.6797 8.55718C11.8269 9.01843 11.7624 9.56968 11.4342 9.93993C11.1681 10.2446 10.7805 10.4105 10.3939 10.5006C9.87968 10.6152 9.346 10.6182 8.82375 10.5672C8.33268 10.5112 7.82162 10.3822 7.44256 10.0477C7.11837 9.76618 6.96006 9.32756 6.97575 8.90431C6.9795 8.83281 7.05068 8.78293 7.11918 8.78881C7.31537 8.78725 7.51162 8.78668 7.70781 8.78912C7.78625 8.7835 7.84431 8.85125 7.84837 8.92512C7.8845 9.16206 7.97356 9.41081 8.18025 9.55125C8.579 9.80856 9.07943 9.79093 9.53606 9.79812C9.91437 9.78137 10.3391 9.77631 10.6477 9.52625C10.8106 9.38362 10.8589 9.145 10.8149 8.93975C10.7672 8.76643 10.5859 8.68568 10.4302 8.63287C9.63125 8.38018 8.764 8.47187 7.97281 8.18606C7.65156 8.07256 7.34093 7.85793 7.21756 7.52793C7.04537 7.06087 7.12425 6.48312 7.48681 6.12543C7.84031 5.7695 8.35056 5.63243 8.83575 5.58343Z" fill="#81CD39"/>
</g>
<defs>
<clipPath id="clip0_10_33">
<rect width="16" height="16" fill="white"/>
</clipPath>
</defs>
</svg>
