<svg width="16" height="16" viewBox="0 0 16 16" fill="none" xmlns="http://www.w3.org/2000/svg">
<g clip-path="url(#clip0_14_118)">
<path d="M12.25 0H3.75C1.67893 0 0 1.67893 0 3.75V12.25C0 14.3211 1.67893 16 3.75 16H12.25C14.3211 16 16 14.3211 16 12.25V3.75C16 1.67893 14.3211 0 12.25 0Z" fill="#F4F2ED"/>
<mask id="mask0_14_118" style="mask-type:luminance" maskUnits="userSpaceOnUse" x="2" y="2" width="12" height="12">
<path d="M2.375 2.375H13.625V13.625H2.375V2.375Z" fill="white"/>
</mask>
<g mask="url(#mask0_14_118)">
<path d="M10.7171 10.5646C10.7888 9.96831 10.7673 9.88131 11.2111 9.97756L11.324 9.98762C11.6655 10.003 12.112 9.93269 12.3787 9.811C12.9435 9.54906 13.2783 9.11137 12.7215 9.2265C11.4515 9.48844 11.3592 9.05819 11.3592 9.05819C12.7008 7.0675 13.262 4.54062 12.7773 3.92231C11.4572 2.23481 9.17158 3.03287 9.13339 3.05394L9.12108 3.05612C8.87058 3.00344 8.5937 2.97262 8.27289 2.96825C7.69814 2.9595 7.2622 3.119 6.93083 3.36994C6.93083 3.36994 2.85401 1.69031 3.04345 5.48237C3.08383 6.28919 4.1992 11.5907 5.5307 9.98675C6.01808 9.40056 6.48833 8.90525 6.48833 8.90525C6.7212 9.06037 7.00114 9.1395 7.29426 9.11094L7.31708 9.09162C7.31037 9.16758 7.31348 9.24409 7.32633 9.31925C6.98358 9.70244 7.08464 9.76969 6.39908 9.91075C5.70564 10.0536 6.11345 10.308 6.37889 10.3748C6.70145 10.4557 7.44764 10.5699 7.95214 9.86419L7.93189 9.94456C8.06639 10.0522 8.05714 10.718 8.07689 11.1935C8.0967 11.669 8.12789 12.1133 8.22501 12.3747C8.32214 12.6362 8.43595 13.3108 9.33683 13.1218C10.0896 12.9606 10.6653 12.7281 10.718 10.5686" fill="black"/>
<path d="M10.7171 10.5646C10.7888 9.96831 10.7673 9.88131 11.2111 9.97756L11.324 9.98762C11.6655 10.003 12.112 9.93269 12.3787 9.811C12.9435 9.54906 13.2783 9.11137 12.7215 9.2265C11.4515 9.48844 11.3592 9.05819 11.3592 9.05819C12.7008 7.0675 13.262 4.54062 12.7773 3.92231C11.4572 2.23481 9.17158 3.03287 9.13339 3.05394L9.12108 3.05612C8.87058 3.00344 8.5937 2.97262 8.27289 2.96825C7.69814 2.9595 7.2622 3.119 6.93083 3.36994C6.93083 3.36994 2.85401 1.69031 3.04345 5.48237C3.08383 6.28919 4.1992 11.5907 5.5307 9.98675C6.01808 9.40056 6.48833 8.90525 6.48833 8.90525C6.7212 9.06037 7.00114 9.1395 7.29426 9.11094L7.31708 9.09162C7.31037 9.16758 7.31348 9.24409 7.32633 9.31925C6.98358 9.70244 7.08464 9.76969 6.39908 9.91075C5.70564 10.0536 6.11345 10.308 6.37889 10.3748C6.70145 10.4557 7.44764 10.5699 7.95214 9.86419L7.93189 9.94456C8.06639 10.0522 8.05714 10.718 8.07689 11.1935C8.0967 11.669 8.12789 12.1133 8.22501 12.3747C8.32214 12.6362 8.43595 13.3108 9.33683 13.1218C10.0896 12.9606 10.6653 12.7281 10.718 10.5686" stroke="black" stroke-width="0.944375"/>
<path d="M12.7175 9.23051C11.4475 9.49238 11.3552 9.06219 11.3552 9.06219C12.6969 7.07144 13.2581 4.54457 12.7737 3.92625C11.4537 2.23875 9.16805 3.03725 9.1298 3.05794L9.11749 3.06013C8.83833 3.0041 8.55451 2.97452 8.2698 2.97176C7.69499 2.96301 7.25905 3.1225 6.92774 3.37344C6.92774 3.37344 2.85049 1.69388 3.0403 5.48594C3.08074 6.29276 4.19611 11.5943 5.52761 9.99032C6.01805 9.40057 6.4883 8.90525 6.4883 8.90525C6.72118 9.06038 7.00111 9.1395 7.29424 9.11094L7.31705 9.09163C7.31034 9.16759 7.31345 9.24409 7.3263 9.31926C6.98355 9.70244 7.08461 9.76969 6.39905 9.91076C5.70561 10.0536 6.11343 10.308 6.37886 10.3748C6.70143 10.4557 7.44761 10.5699 7.95211 9.86419L7.93186 9.94457C8.06636 10.0523 8.16036 10.6446 8.14455 11.1816C8.12874 11.7187 8.11818 12.0869 8.22368 12.3752C8.32918 12.6634 8.43461 13.3113 9.33549 13.1223C10.0883 12.961 10.4781 12.5422 10.533 11.8453C10.5717 11.3495 10.6587 11.4224 10.6649 10.9795L10.7352 10.7694C10.8156 10.0971 10.7483 9.88044 11.2119 9.9815L11.3249 9.99163C11.6664 10.007 12.1133 9.93669 12.3752 9.81494C12.9399 9.55307 13.2747 9.11532 12.718 9.23051H12.7175Z" fill="#336791"/>
<path d="M9.12938 3.03725C8.98875 3.08119 11.3988 2.15619 12.7689 3.9065C13.2524 4.52481 12.6921 7.05169 11.3504 9.04238M8.00613 9.6115C7.971 10.8622 8.01494 12.1216 8.13713 12.424C8.25925 12.7263 8.52163 13.3249 9.42294 13.1324C10.1758 12.9711 10.4499 12.6586 10.5686 11.9691L10.8468 9.76444L8.00613 9.6115ZM6.926 3.34181C6.926 3.34181 2.84606 1.67369 3.03594 5.46563C3.07638 6.27244 4.19169 11.574 5.52325 9.97C6.00925 9.38419 6.44875 8.92588 6.44875 8.92588L6.926 3.34181Z" stroke="white" stroke-width="0.314625" stroke-linecap="round" stroke-linejoin="round"/>
<path d="M11.3508 9.0415C11.3508 9.0415 11.4388 9.47219 12.7131 9.20938C13.2699 9.09425 12.9346 9.53194 12.3704 9.79388C11.9072 10.0092 10.8683 10.0641 10.8512 9.7675C10.8073 9.00063 11.3979 9.23357 11.3553 9.0415C11.3166 8.86838 11.052 8.69875 10.878 8.27513C10.7255 7.90594 8.7862 5.0715 11.4159 5.492C11.5126 5.47225 10.7303 2.98719 8.26939 2.95113C5.80845 2.91507 5.88626 5.97675 5.88626 5.97675" stroke="white" stroke-width="0.314625" stroke-linecap="round" stroke-linejoin="bevel"/>
<path d="M7.31749 9.30432C6.97474 9.68751 7.0758 9.75475 6.3903 9.89582C5.6968 10.0386 6.10467 10.2931 6.37005 10.3599C6.69261 10.4408 7.4388 10.555 7.9433 9.84876C8.09711 9.63344 7.94242 9.29069 7.73149 9.20369C7.62955 9.16151 7.4933 9.10876 7.31842 9.30476L7.31749 9.30432Z" stroke="white" stroke-width="0.314625" stroke-linejoin="round"/>
<path d="M7.29512 9.29769C7.25993 9.07225 7.36893 8.80463 7.48537 8.49088C7.6603 8.02069 8.06374 7.55044 7.74118 6.05762C7.50074 4.94575 5.88668 5.826 5.88668 5.97675C5.88668 6.1275 5.95962 6.74144 5.8603 7.4555C5.7298 8.38806 6.45355 9.17644 7.28674 9.096" stroke="white" stroke-width="0.314625" stroke-linecap="round" stroke-linejoin="round"/>
<path d="M6.91106 5.95437C6.90356 6.00575 7.0055 6.14331 7.13781 6.16175C7.27006 6.18025 7.383 6.073 7.3905 6.02112C7.39794 5.96925 7.296 5.913 7.16375 5.89456C7.0315 5.87612 6.91763 5.90337 6.91106 5.95437Z" fill="white" stroke="white" stroke-width="0.105"/>
<path d="M10.9382 5.84938C10.9452 5.90075 10.8437 6.03825 10.7114 6.05675C10.5791 6.07519 10.4653 5.968 10.4587 5.91613C10.4521 5.86425 10.5532 5.808 10.6855 5.78957C10.8177 5.77113 10.9316 5.79838 10.9382 5.84938Z" fill="white" stroke="white" stroke-width="0.0523125"/>
<path d="M11.4111 5.49294C11.433 5.89726 11.324 6.17188 11.3099 6.60213C11.2898 7.22701 11.6079 7.94244 11.1284 8.65875" stroke="white" stroke-width="0.314625" stroke-linecap="round" stroke-linejoin="round"/>
</g>
</g>
<defs>
<clipPath id="clip0_14_118">
<rect width="16" height="16" fill="white"/>
</clipPath>
</defs>
</svg>
