<svg width="16" height="16" viewBox="0 0 16 16" fill="none" xmlns="http://www.w3.org/2000/svg">
<g clip-path="url(#clip0_13_53)">
<path d="M12.25 0H3.75C1.67893 0 0 1.67893 0 3.75V12.25C0 14.3211 1.67893 16 3.75 16H12.25C14.3211 16 16 14.3211 16 12.25V3.75C16 1.67893 14.3211 0 12.25 0Z" fill="#FF6C37"/>
<path d="M10.5663 5.53826L7.40757 8.69707L6.51675 7.80632C9.62319 4.69994 9.93013 4.96944 10.5663 5.53826Z" fill="#EEEEEE"/>
<path d="M7.40756 8.77187C7.38506 8.77187 7.37012 8.76444 7.35512 8.74944L6.45687 7.85869C6.44978 7.85193 6.44413 7.84381 6.44027 7.8348C6.43641 7.8258 6.43442 7.81611 6.43442 7.80631C6.43442 7.79652 6.43641 7.78682 6.44027 7.77782C6.44413 7.76882 6.44978 7.76069 6.45687 7.75394C9.61568 4.59506 9.945 4.8945 10.6112 5.49331C10.6262 5.50831 10.6337 5.52331 10.6337 5.54575C10.6337 5.56825 10.6262 5.58319 10.6112 5.59806L7.45243 8.74944C7.445 8.76444 7.4225 8.77187 7.40756 8.77187ZM6.62156 7.80631L7.40756 8.59225L10.4541 5.54575C9.90018 5.05169 9.52587 4.902 6.62156 7.80631Z" fill="#FF6C37"/>
<path d="M8.31324 9.60281L7.45242 8.742L10.6112 5.58325C11.4571 6.4365 10.192 7.82131 8.31324 9.60281Z" fill="#EEEEEE"/>
<path d="M8.31326 9.67768C8.29076 9.67768 8.27588 9.67018 8.26088 9.65518L7.40007 8.79437C7.38507 8.77943 7.38507 8.76443 7.38507 8.742C7.38507 8.7195 7.39257 8.70456 7.40757 8.68956L10.5663 5.53081C10.5731 5.52373 10.5812 5.51809 10.5902 5.51424C10.5992 5.51039 10.6089 5.50841 10.6187 5.50841C10.6285 5.50841 10.6382 5.51039 10.6472 5.51424C10.6562 5.51809 10.6644 5.52373 10.6711 5.53081C10.7667 5.61925 10.8422 5.72714 10.8926 5.84722C10.9429 5.9673 10.967 6.09678 10.9631 6.22693C10.9481 7.05775 10.0049 8.11318 8.37313 9.65518C8.3507 9.67018 8.3282 9.67768 8.31326 9.67768ZM7.55726 8.742C8.03626 9.2285 8.23845 9.42318 8.31326 9.498C9.57082 8.30037 10.7909 7.07275 10.7984 6.22693C10.8059 6.03231 10.7311 5.83768 10.6038 5.68793L7.55726 8.742Z" fill="#FF6C37"/>
<path d="M6.53176 7.82875L7.16801 8.465C7.18297 8.48 7.18297 8.49498 7.16801 8.50994C7.16051 8.51744 7.16051 8.51744 7.15307 8.51744L5.83558 8.80187C5.76826 8.80937 5.70839 8.76444 5.69339 8.69706C5.68589 8.65962 5.70089 8.62225 5.72339 8.59975L6.48683 7.83625C6.50183 7.82125 6.52426 7.81375 6.53176 7.82875Z" fill="#EEEEEE"/>
<path d="M5.81312 8.87675C5.70087 8.87675 5.6185 8.78688 5.6185 8.67456C5.6185 8.62225 5.641 8.56981 5.67844 8.53238L6.44187 7.76888C6.48681 7.73144 6.54675 7.73144 6.59162 7.76888L7.22787 8.40513C7.27275 8.44256 7.27275 8.50994 7.22787 8.55481C7.21287 8.56981 7.19794 8.57731 7.17544 8.58481L5.85806 8.86925C5.84306 8.86925 5.82806 8.87675 5.81312 8.87675ZM6.50931 7.91106L5.77575 8.64463C5.76075 8.65963 5.75325 8.68206 5.76825 8.7045C5.77575 8.727 5.79812 8.7345 5.82062 8.727L7.05569 8.4575L6.50931 7.91106Z" fill="#FF6C37"/>
<path d="M12.2356 3.78675C11.7565 3.32269 10.9855 3.33763 10.5214 3.82419C10.0573 4.31069 10.0723 5.07419 10.5588 5.53831C10.7508 5.72392 10.9989 5.84073 11.2643 5.87052C11.5298 5.90032 11.7976 5.84141 12.026 5.703L11.1726 4.84963L12.2356 3.78675Z" fill="#EEEEEE"/>
<path d="M11.3972 5.95C10.6861 5.95 10.1097 5.37362 10.1097 4.6625C10.1097 3.95137 10.6861 3.375 11.3972 3.375C11.7266 3.375 12.0484 3.50225 12.2879 3.73431C12.3029 3.74931 12.3104 3.76431 12.3104 3.78669C12.3104 3.80919 12.3029 3.82419 12.2879 3.83912L11.2774 4.84963L12.0709 5.64306C12.1009 5.67306 12.1009 5.71794 12.0709 5.74788L12.0559 5.76288C11.8613 5.88256 11.6292 5.95 11.3972 5.95ZM11.3972 3.53225C10.7684 3.53225 10.2594 4.04119 10.2669 4.67C10.2669 5.29875 10.7759 5.80775 11.4047 5.80031C11.5769 5.80031 11.749 5.76281 11.9062 5.6805L11.1202 4.90206C11.1052 4.88706 11.0978 4.87206 11.0978 4.84963C11.0978 4.82713 11.1052 4.81219 11.1202 4.79725L12.1233 3.79419C11.9212 3.62206 11.6667 3.53225 11.3972 3.53225Z" fill="#FF6C37"/>
<path d="M12.258 3.80919L12.2431 3.79419L11.1726 4.84963L12.0185 5.6955C12.1009 5.64306 12.1831 5.58325 12.2506 5.51588C12.364 5.40479 12.4542 5.2723 12.516 5.12608C12.5779 4.97987 12.6101 4.82283 12.6107 4.66409C12.6114 4.50534 12.5806 4.34803 12.5201 4.20128C12.4595 4.05453 12.3704 3.92126 12.258 3.80919Z" fill="#EEEEEE"/>
<path d="M12.026 5.77781C12.0035 5.77781 11.9886 5.77031 11.9736 5.75531L11.1202 4.90199C11.1052 4.88699 11.0978 4.87206 11.0978 4.84962C11.0978 4.82712 11.1052 4.81212 11.1202 4.79718L12.1831 3.73437C12.2131 3.70437 12.258 3.70437 12.2879 3.73437L12.3104 3.74937C12.8119 4.25081 12.8119 5.05924 12.3179 5.56831C12.2431 5.64312 12.1607 5.71049 12.0709 5.76287C12.0484 5.77037 12.0335 5.77781 12.026 5.77781ZM11.2774 4.84968L12.0335 5.60568C12.0934 5.56831 12.1532 5.51587 12.1981 5.47093C12.6248 5.04424 12.6472 4.34818 12.2356 3.89906L11.2774 4.84968Z" fill="#FF6C37"/>
<path d="M10.6936 5.67293C10.6072 5.58666 10.4901 5.53821 10.368 5.53821C10.2459 5.53821 10.1288 5.58666 10.0424 5.67293L7.22037 8.49493L7.69199 8.9665L10.6786 6.34668C10.8732 6.18193 10.8882 5.89 10.7236 5.69543C10.7086 5.68793 10.7011 5.68043 10.6936 5.67293Z" fill="#EEEEEE"/>
<path d="M7.68449 9.04137C7.66206 9.04137 7.64706 9.03387 7.63206 9.01893L7.16049 8.54737C7.15341 8.5406 7.14778 8.53246 7.14393 8.52346C7.14008 8.51445 7.13809 8.50476 7.13809 8.49496C7.13809 8.48517 7.14008 8.47547 7.14393 8.46646C7.14778 8.45746 7.15341 8.44932 7.16049 8.44255L9.98243 5.62055C10.032 5.57073 10.0909 5.5312 10.1558 5.50422C10.2206 5.47724 10.2902 5.46335 10.3605 5.46335C10.4307 5.46335 10.5003 5.47724 10.5652 5.50422C10.63 5.5312 10.6889 5.57073 10.7385 5.62055C10.7883 5.6701 10.8279 5.729 10.8548 5.79388C10.8818 5.85875 10.8957 5.92832 10.8957 5.99859C10.8957 6.06885 10.8818 6.13842 10.8548 6.20329C10.8279 6.26817 10.7883 6.32707 10.7385 6.37662L10.7161 6.39906L7.72937 9.01893C7.72191 9.03389 7.70695 9.04137 7.68449 9.04137ZM7.32518 8.49493L7.69199 8.86174L10.6262 6.28674C10.7909 6.15199 10.8059 5.90499 10.6711 5.74037C10.5364 5.57574 10.2894 5.56074 10.1247 5.69537C10.1172 5.70287 10.1097 5.71037 10.0947 5.71787L7.32518 8.49493Z" fill="#FF6C37"/>
<path d="M5.05712 11.7062C5.02712 11.7212 5.01218 11.7511 5.01962 11.7811L5.14693 12.3201C5.17693 12.3949 5.13193 12.4847 5.04962 12.5072C4.98974 12.5296 4.92243 12.5072 4.88499 12.4623L4.06155 11.6464L6.7488 8.95912L7.67699 8.97406L8.30574 9.60287C8.15605 9.73012 7.2503 10.6059 5.05712 11.7062Z" fill="#EEEEEE"/>
<path d="M4.99724 12.5819C4.93737 12.5819 4.87749 12.5595 4.84005 12.5146L4.02412 11.6987C4.00912 11.6837 4.00168 11.6687 4.00168 11.6463C4.00168 11.6239 4.00918 11.6089 4.02418 11.5939L6.71137 8.90669C6.72637 8.89169 6.7488 8.88419 6.7638 8.88419L7.69199 8.89919C7.71443 8.89919 7.72937 8.90669 7.7443 8.92162L8.37312 9.55037C8.38812 9.56537 8.39555 9.58781 8.39555 9.61025C8.39555 9.63275 8.38812 9.64769 8.36562 9.66269L8.31324 9.70762C7.5198 10.4037 6.44187 11.0999 5.10199 11.7661L5.2293 12.2975C5.25174 12.3948 5.2068 12.4996 5.11699 12.552C5.07205 12.5744 5.03468 12.5819 4.99724 12.5819ZM4.1738 11.6463L4.94487 12.4098C4.96724 12.4472 5.01218 12.4622 5.04962 12.4397C5.08705 12.4173 5.10205 12.3724 5.07962 12.3349L4.95237 11.796C4.93737 11.7286 4.96724 11.6687 5.02718 11.6388C6.35205 10.9726 7.42249 10.284 8.20843 9.60281L7.65455 9.04887L6.79374 9.03387L4.1738 11.6463Z" fill="#FF6C37"/>
<path d="M3.42532 12.2901L4.06907 11.6463L5.02719 12.6044L3.50019 12.4997C3.43282 12.4922 3.38788 12.4323 3.39538 12.3649C3.39538 12.3349 3.40282 12.305 3.42532 12.2901Z" fill="#EEEEEE"/>
<path d="M5.02717 12.6718L3.49267 12.567C3.38036 12.5595 3.30549 12.4623 3.31299 12.3499C3.32049 12.305 3.33549 12.2601 3.37292 12.2302L4.01667 11.5864C4.02343 11.5793 4.03155 11.5737 4.04056 11.5698C4.04956 11.566 4.05925 11.564 4.06905 11.564C4.07884 11.564 4.08854 11.566 4.09754 11.5698C4.10654 11.5737 4.11467 11.5793 4.12142 11.5864L5.07955 12.5446C5.10205 12.567 5.10955 12.5969 5.09455 12.6269C5.07955 12.6569 5.05709 12.6718 5.02717 12.6718ZM4.06905 11.7511L3.47774 12.3424C3.45524 12.3574 3.45524 12.3949 3.47774 12.4098C3.48524 12.4173 3.49274 12.4248 3.50767 12.4248L4.83255 12.5146L4.06905 11.7511ZM6.4868 9.30344C6.44186 9.30344 6.41192 9.266 6.41192 9.22857C6.41192 9.20613 6.41942 9.19119 6.43442 9.17619L7.16049 8.45013C7.16724 8.44302 7.17537 8.43737 7.18438 8.4335C7.19339 8.42964 7.20309 8.42764 7.21289 8.42764C7.2227 8.42764 7.2324 8.42964 7.24141 8.4335C7.25041 8.43737 7.25854 8.44302 7.2653 8.45013L7.73686 8.92169C7.7593 8.94413 7.7668 8.96657 7.7593 8.99657C7.7518 9.019 7.72936 9.04144 7.69949 9.04894L6.5018 9.30344H6.4868ZM7.21286 8.60732L6.71886 9.10138L7.52724 8.92913L7.21286 8.60732Z" fill="#FF6C37"/>
<path d="M7.67699 8.974L6.85361 9.15368C6.79374 9.16868 6.7338 9.13125 6.71886 9.07137C6.71136 9.03393 6.71886 8.9965 6.7488 8.96656L7.20536 8.50993L7.67699 8.974Z" fill="#EEEEEE"/>
<path d="M6.83862 9.22856C6.81398 9.22881 6.78953 9.22414 6.76672 9.21482C6.7439 9.20551 6.72317 9.19173 6.70575 9.17431C6.68832 9.15688 6.67455 9.13615 6.66523 9.11334C6.65592 9.09052 6.65125 9.06607 6.6515 9.04143C6.6515 8.98906 6.67394 8.94412 6.70387 8.90674L7.1605 8.45012C7.16725 8.44301 7.17538 8.43736 7.18439 8.43349C7.1934 8.42963 7.2031 8.42763 7.2129 8.42763C7.22271 8.42763 7.23241 8.42963 7.24142 8.43349C7.25043 8.43736 7.25856 8.44301 7.26531 8.45012L7.73687 8.92168C7.75931 8.94412 7.76681 8.96656 7.75931 8.99656C7.75181 9.01899 7.72937 9.04143 7.6995 9.04893L6.87606 9.22856H6.83862ZM7.21287 8.60731L6.80869 9.01149C6.79375 9.02649 6.79375 9.04143 6.80119 9.05643C6.80869 9.07139 6.82367 9.07887 6.84612 9.07887L7.53475 8.92912L7.21287 8.60731ZM12.2655 4.52768C12.2506 4.48281 12.1981 4.46037 12.1532 4.47537C12.1083 4.49024 12.0859 4.54268 12.1009 4.58762C12.1009 4.59512 12.1083 4.60262 12.1083 4.61006C12.1532 4.69993 12.1383 4.81218 12.0784 4.89449C12.0484 4.93199 12.0559 4.98437 12.0859 5.01431C12.1233 5.04418 12.1757 5.03681 12.2056 4.99931C12.3179 4.85706 12.3404 4.67743 12.2655 4.52768Z" fill="#FF6C37"/>
</g>
<defs>
<clipPath id="clip0_13_53">
<rect width="16" height="16" fill="white"/>
</clipPath>
</defs>
</svg>
