<svg width="16" height="16" viewBox="0 0 16 16" fill="none" xmlns="http://www.w3.org/2000/svg">
<g clip-path="url(#clip0_13_79)">
<path d="M12.25 0H3.75C1.67893 0 0 1.67893 0 3.75V12.25C0 14.3211 1.67893 16 3.75 16H12.25C14.3211 16 16 14.3211 16 12.25V3.75C16 1.67893 14.3211 0 12.25 0Z" fill="#F4F2ED"/>
<path fill-rule="evenodd" clip-rule="evenodd" d="M2.27542 12.703C2.19653 12.7054 2.11815 12.6896 2.04633 12.6568C1.97452 12.6241 1.91119 12.5753 1.86123 12.5142C1.81127 12.448 1.77689 12.3715 1.76066 12.2902C1.74443 12.2089 1.74676 12.125 1.76748 12.0447L3.64073 3.86168C3.68233 3.69207 3.77807 3.54062 3.91344 3.43028C4.04882 3.31994 4.21646 3.25672 4.39098 3.25018H13.7246C13.8035 3.24791 13.8818 3.26374 13.9536 3.29648C14.0254 3.32921 14.0888 3.37796 14.1388 3.439C14.1887 3.50518 14.2231 3.58177 14.2393 3.66307C14.2555 3.74437 14.2532 3.82828 14.2325 3.90856L12.358 12.092C12.3164 12.2616 12.2206 12.4131 12.0852 12.5234C11.9498 12.6337 11.7822 12.6969 11.6077 12.7034H2.27536L2.27542 12.703Z" fill="url(#paint0_linear_13_79)"/>
<path fill-rule="evenodd" clip-rule="evenodd" d="M4.391 3.35538H13.7246C13.79 3.35271 13.855 3.36581 13.9143 3.39358C13.9735 3.42136 14.0252 3.46298 14.0649 3.51494C14.1047 3.56691 14.1313 3.62769 14.1427 3.69213C14.154 3.75658 14.1496 3.8228 14.1299 3.88519L12.2553 12.0681C12.2183 12.2142 12.1355 12.3444 12.0189 12.4398C11.9023 12.5352 11.7581 12.5906 11.6077 12.5979H2.27538C2.21 12.6006 2.14493 12.5875 2.08569 12.5598C2.02645 12.532 1.97478 12.4903 1.93506 12.4383C1.89531 12.3864 1.86865 12.3256 1.85734 12.2612C1.84602 12.1967 1.85039 12.1305 1.87006 12.0681L3.74475 3.88519C3.78155 3.73933 3.86419 3.60912 3.98053 3.51375C4.09687 3.41837 4.24075 3.36286 4.391 3.35538Z" fill="url(#paint1_linear_13_79)"/>
<path fill-rule="evenodd" clip-rule="evenodd" d="M8.01787 10.4512H10.2879C10.4164 10.4566 10.5379 10.5116 10.627 10.6045C10.716 10.6974 10.7658 10.8211 10.7658 10.9497C10.7658 11.0784 10.7161 11.2022 10.627 11.2951C10.538 11.388 10.4165 11.4429 10.2879 11.4483H8.01787C7.8893 11.4428 7.76781 11.3879 7.67875 11.295C7.5897 11.2021 7.53996 11.0784 7.53994 10.9497C7.53995 10.8211 7.58968 10.6973 7.67873 10.6044C7.76779 10.5115 7.88929 10.4566 8.01787 10.4512ZM9.49037 8.23475C9.42534 8.344 9.33483 8.43589 9.22656 8.50256L5.01369 11.5264C4.89636 11.6028 4.75422 11.6311 4.61658 11.6057C4.47894 11.5803 4.35631 11.503 4.274 11.3898C4.19167 11.2766 4.15593 11.1362 4.17414 10.9974C4.19235 10.8586 4.26313 10.7322 4.37187 10.6441L8.171 7.89287V7.83662L5.78406 5.29881C5.69489 5.19178 5.64999 5.05473 5.65852 4.91569C5.66705 4.77665 5.72838 4.64613 5.82997 4.55081C5.93155 4.45549 6.06572 4.40258 6.20502 4.40291C6.34432 4.40323 6.47823 4.45677 6.57937 4.55256L9.44393 7.59962C9.52088 7.68542 9.56718 7.79432 9.57558 7.90925C9.58399 8.02419 9.55402 8.13867 9.49037 8.23475Z" fill="#2C5591"/>
<path fill-rule="evenodd" clip-rule="evenodd" d="M9.38363 8.12944C9.31894 8.2388 9.22856 8.33073 9.12031 8.39726L4.90875 11.4216C4.79139 11.4964 4.64993 11.5236 4.5132 11.4977C4.37647 11.4718 4.25476 11.3947 4.17287 11.2822C4.09097 11.1697 4.05507 11.0302 4.07247 10.8921C4.08987 10.7541 4.15926 10.6278 4.2665 10.5391L8.06606 7.78801V7.73132L5.67913 5.19213C5.58934 5.08513 5.54395 4.9478 5.55228 4.80837C5.56061 4.66894 5.62203 4.53799 5.72392 4.44245C5.82582 4.3469 5.96043 4.29401 6.10011 4.29465C6.23979 4.29529 6.37392 4.34941 6.47494 4.44588L9.339 7.49294C9.41634 7.57887 9.46274 7.68819 9.47083 7.80352C9.47892 7.91884 9.44822 8.03356 9.38363 8.12944ZM7.95544 10.3924H10.2254C10.3508 10.3924 10.471 10.4422 10.5596 10.5308C10.6483 10.6195 10.6981 10.7397 10.6981 10.865C10.6981 10.9904 10.6483 11.1106 10.5597 11.1992C10.471 11.2879 10.3508 11.3377 10.2254 11.3377H7.95544C7.83171 11.3352 7.71388 11.2843 7.62726 11.196C7.54063 11.1076 7.4921 10.9888 7.4921 10.865C7.4921 10.7413 7.54063 10.6225 7.62726 10.5341C7.71388 10.4457 7.83171 10.3948 7.95544 10.3924Z" fill="white"/>
</g>
<defs>
<linearGradient id="paint0_linear_13_79" x1="11.2694" y1="10.8972" x2="4.09911" y2="4.49231" gradientUnits="userSpaceOnUse">
<stop stop-color="#5391FE"/>
<stop offset="1" stop-color="#3E6DBF"/>
</linearGradient>
<linearGradient id="paint1_linear_13_79" x1="4.02769" y1="4.40694" x2="11.1248" y2="10.785" gradientUnits="userSpaceOnUse">
<stop stop-color="#5391FE"/>
<stop offset="1" stop-color="#3E6DBF"/>
</linearGradient>
<clipPath id="clip0_13_79">
<rect width="16" height="16" fill="white"/>
</clipPath>
</defs>
</svg>
