<svg width="15" height="30" viewBox="0 0 15 30" fill="none" xmlns="http://www.w3.org/2000/svg">
<mask id="path-1-outside-1_27_3" maskUnits="userSpaceOnUse" x="-1" y="-1" width="17" height="32" fill="black">
<rect fill="white" x="-1" y="-1" width="17" height="32"/>
<path d="M14.5966 0.90909V30H7.57955V7.47159H7.40909L0.903409 11.4489V5.36932L8.0767 0.90909H14.5966Z"/>
</mask>
<path d="M14.5966 0.90909H15.5966V-0.09091H14.5966V0.90909ZM14.5966 30V31H15.5966V30H14.5966ZM7.57955 30H6.57955V31H7.57955V30ZM7.57955 7.47159H8.57955V6.47159H7.57955V7.47159ZM7.40909 7.47159V6.47159H7.12763L6.88749 6.6184L7.40909 7.47159ZM0.903409 11.4489H-0.0965908V13.2323L1.42501 12.3021L0.903409 11.4489ZM0.903409 5.36932L0.375377 4.52009L-0.0965908 4.81355V5.36932H0.903409ZM8.0767 0.90909V-0.09091H7.79116L7.54867 0.0598659L8.0767 0.90909ZM13.5966 0.90909V30H15.5966V0.90909H13.5966ZM14.5966 29H7.57955V31H14.5966V29ZM8.57955 30V7.47159H6.57955V30H8.57955ZM7.57955 6.47159H7.40909V8.47159H7.57955V6.47159ZM6.88749 6.6184L0.381809 10.5957L1.42501 12.3021L7.93069 8.32478L6.88749 6.6184ZM1.90341 11.4489V5.36932H-0.0965908V11.4489H1.90341ZM1.43144 6.21854L8.60474 1.75831L7.54867 0.0598659L0.375377 4.52009L1.43144 6.21854ZM8.0767 1.90909H14.5966V-0.09091H8.0767V1.90909Z" fill="url(#paint0_linear_27_3)" mask="url(#path-1-outside-1_27_3)"/>
<path d="M14.5966 0.90909H15.5966V-0.09091H14.5966V0.90909ZM14.5966 30V31H15.5966V30H14.5966ZM7.57955 30H6.57955V31H7.57955V30ZM7.57955 7.47159H8.57955V6.47159H7.57955V7.47159ZM7.40909 7.47159V6.47159H7.12763L6.88749 6.6184L7.40909 7.47159ZM0.903409 11.4489H-0.0965908V13.2323L1.42501 12.3021L0.903409 11.4489ZM0.903409 5.36932L0.375377 4.52009L-0.0965908 4.81355V5.36932H0.903409ZM8.0767 0.90909V-0.09091H7.79116L7.54867 0.0598659L8.0767 0.90909ZM13.5966 0.90909V30H15.5966V0.90909H13.5966ZM14.5966 29H7.57955V31H14.5966V29ZM8.57955 30V7.47159H6.57955V30H8.57955ZM7.57955 6.47159H7.40909V8.47159H7.57955V6.47159ZM6.88749 6.6184L0.381809 10.5957L1.42501 12.3021L7.93069 8.32478L6.88749 6.6184ZM1.90341 11.4489V5.36932H-0.0965908V11.4489H1.90341ZM1.43144 6.21854L8.60474 1.75831L7.54867 0.0598659L0.375377 4.52009L1.43144 6.21854ZM8.0767 1.90909H14.5966V-0.09091H8.0767V1.90909Z" fill="url(#paint1_linear_27_3)" mask="url(#path-1-outside-1_27_3)"/>
<defs>
<linearGradient id="paint0_linear_27_3" x1="9" y1="-7.75325" x2="9" y2="39" gradientUnits="userSpaceOnUse">
<stop stop-color="#0900FF" stop-opacity="0"/>
<stop offset="1" stop-color="#0900FF"/>
</linearGradient>
<linearGradient id="paint1_linear_27_3" x1="9" y1="-4.32468" x2="9" y2="11.5714" gradientUnits="userSpaceOnUse">
<stop stop-color="#FF3DEC" stop-opacity="0"/>
<stop offset="1" stop-color="#FF8AF3"/>
</linearGradient>
</defs>
</svg>
