<svg width="23" height="30" viewBox="0 0 23 30" fill="none" xmlns="http://www.w3.org/2000/svg">
<mask id="path-1-outside-1_24_2" maskUnits="userSpaceOnUse" x="-1" y="-1" width="25" height="32" fill="black">
<rect fill="white" x="-1" y="-1" width="25" height="32"/>
<path d="M1.14489 30V24.9432L11.7557 15.6534C12.5511 14.9337 13.2282 14.2756 13.7869 13.679C14.3456 13.0729 14.7718 12.4669 15.0653 11.8608C15.3589 11.2453 15.5057 10.5777 15.5057 9.85795C15.5057 9.05303 15.3305 8.36648 14.9801 7.7983C14.6297 7.22064 14.1468 6.77557 13.5312 6.46307C12.9157 6.15057 12.2102 5.99432 11.4148 5.99432C10.6098 5.99432 9.90436 6.16004 9.2983 6.49148C8.69224 6.81345 8.21875 7.2822 7.87784 7.89773C7.5464 8.51326 7.38068 9.26136 7.38068 10.142H0.71875C0.71875 8.16288 1.16383 6.4536 2.05398 5.0142C2.94413 3.57481 4.19413 2.46686 5.80398 1.69034C7.4233 0.904355 9.30303 0.511363 11.4432 0.511363C13.6496 0.511363 15.5672 0.880681 17.196 1.61932C18.8248 2.35795 20.0843 3.39015 20.9744 4.71591C21.8741 6.0322 22.3239 7.56155 22.3239 9.30398C22.3239 10.4119 22.1013 11.5104 21.6562 12.5994C21.2112 13.6884 20.411 14.8911 19.2557 16.2074C18.1098 17.5237 16.4811 19.1004 14.3693 20.9375L10.8892 24.1477V24.3324H22.679V30H1.14489Z"/>
</mask>
<path d="M1.14489 30H0.144886V31H1.14489V30ZM1.14489 24.9432L0.486168 24.1908L0.144886 24.4896V24.9432H1.14489ZM11.7557 15.6534L12.4144 16.4058L12.4205 16.4004L12.4266 16.3949L11.7557 15.6534ZM13.7869 13.679L14.5169 14.3626L14.5222 14.3568L13.7869 13.679ZM15.0653 11.8608L15.9653 12.2967L15.9679 12.2913L15.0653 11.8608ZM14.9801 7.7983L14.1251 8.31692L14.1289 8.32318L14.9801 7.7983ZM13.5312 6.46307L13.0786 7.35473L13.0786 7.35473L13.5312 6.46307ZM9.2983 6.49148L9.76748 7.37466L9.77811 7.36885L9.2983 6.49148ZM7.87784 7.89773L7.00299 7.41319L6.99737 7.42363L7.87784 7.89773ZM7.38068 10.142V11.142H8.38068V10.142H7.38068ZM0.71875 10.142H-0.28125V11.142H0.71875V10.142ZM2.05398 5.0142L2.90448 5.54017L2.90448 5.54017L2.05398 5.0142ZM5.80398 1.69034L6.23843 2.59104L6.24064 2.58997L5.80398 1.69034ZM17.196 1.61932L17.609 0.708589L17.609 0.708589L17.196 1.61932ZM20.9744 4.71591L20.1442 5.27336L20.1488 5.28017L20.9744 4.71591ZM21.6562 12.5994L20.7306 12.2211L20.7306 12.2211L21.6562 12.5994ZM19.2557 16.2074L18.5041 15.5477L18.5014 15.5508L19.2557 16.2074ZM14.3693 20.9375L13.713 20.183L13.702 20.1926L13.6913 20.2025L14.3693 20.9375ZM10.8892 24.1477L10.2112 23.4127L9.8892 23.7097V24.1477H10.8892ZM10.8892 24.3324H9.8892V25.3324H10.8892V24.3324ZM22.679 24.3324H23.679V23.3324H22.679V24.3324ZM22.679 30V31H23.679V30H22.679ZM2.14489 30V24.9432H0.144886V30H2.14489ZM1.8036 25.6956L12.4144 16.4058L11.097 14.901L0.486168 24.1908L1.8036 25.6956ZM12.4266 16.3949C13.2366 15.6621 13.9345 14.9843 14.5168 14.3625L13.057 12.9954C12.5219 13.5668 11.8657 14.2053 11.0848 14.9119L12.4266 16.3949ZM14.5222 14.3568C15.1331 13.6941 15.6207 13.0082 15.9653 12.2967L14.1654 11.4249C13.9229 11.9255 13.5582 12.4517 13.0517 13.0012L14.5222 14.3568ZM15.9679 12.2913C16.3292 11.5339 16.5057 10.7182 16.5057 9.85795H14.5057C14.5057 10.4371 14.3886 10.9567 14.1627 11.4303L15.9679 12.2913ZM16.5057 9.85795C16.5057 8.90602 16.2973 8.02912 15.8313 7.27341L14.1289 8.32318C14.3637 8.70384 14.5057 9.20004 14.5057 9.85795H16.5057ZM15.8351 7.27968C15.3858 6.53898 14.7619 5.96637 13.9839 5.5714L13.0786 7.35473C13.5316 7.58476 13.8736 7.90231 14.1251 8.31691L15.8351 7.27968ZM13.9839 5.5714C13.2082 5.17755 12.3435 4.99432 11.4148 4.99432V6.99432C12.0769 6.99432 12.6233 7.12359 13.0786 7.35473L13.9839 5.5714ZM11.4148 4.99432C10.47 4.99432 9.59432 5.18982 8.81848 5.61411L9.77811 7.36885C10.2144 7.13025 10.7497 6.99432 11.4148 6.99432V4.99432ZM8.82914 5.60836C8.04762 6.02354 7.43523 6.6329 7.00305 7.41323L8.75263 8.38223C9.00227 7.93149 9.33685 7.60335 9.76745 7.37459L8.82914 5.60836ZM6.99737 7.42363C6.56967 8.21792 6.38068 9.138 6.38068 10.142H8.38068C8.38068 9.38473 8.52313 8.80859 8.75831 8.37183L6.99737 7.42363ZM7.38068 9.14205H0.71875V11.142H7.38068V9.14205ZM1.71875 10.142C1.71875 8.31672 2.12761 6.79639 2.90448 5.54017L1.20347 4.48824C0.200044 6.1108 -0.28125 8.00904 -0.28125 10.142H1.71875ZM2.90448 5.54017C3.68873 4.27203 4.79003 3.28967 6.23843 2.59103L5.36952 0.789645C3.59823 1.64404 2.19953 2.87759 1.20347 4.48824L2.90448 5.54017ZM6.24064 2.58997C7.7005 1.88138 9.42599 1.51136 11.4432 1.51136V-0.488637C9.18008 -0.488637 7.14609 -0.0726671 5.36732 0.790714L6.24064 2.58997ZM11.4432 1.51136C13.5396 1.51136 15.3106 1.86232 16.783 2.53005L17.609 0.708589C15.8239 -0.100955 13.7596 -0.488637 11.4432 -0.488637V1.51136ZM16.783 2.53005C18.2635 3.20142 19.3697 4.1198 20.1442 5.27334L21.8047 4.15847C20.7989 2.6605 19.3861 1.51449 17.609 0.708589L16.783 2.53005ZM20.1488 5.28017C20.9243 6.41476 21.3239 7.74334 21.3239 9.30398H23.3239C23.3239 7.37976 22.8238 5.64963 21.8 4.15165L20.1488 5.28017ZM21.3239 9.30398C21.3239 10.2743 21.1296 11.2447 20.7306 12.2211L22.5819 12.9778C23.073 11.7762 23.3239 10.5496 23.3239 9.30398H21.3239ZM20.7306 12.2211C20.3427 13.1702 19.6184 14.2782 18.5041 15.5477L20.0073 16.867C21.2036 15.504 22.0797 14.2067 22.5819 12.9778L20.7306 12.2211ZM18.5014 15.5508C17.3984 16.8179 15.808 18.3605 13.713 20.183L15.0257 21.692C17.1542 19.8403 18.8213 18.2294 20.0099 16.864L18.5014 15.5508ZM13.6913 20.2025L10.2112 23.4127L11.5672 24.8828L15.0473 21.6725L13.6913 20.2025ZM9.8892 24.1477V24.3324H11.8892V24.1477H9.8892ZM10.8892 25.3324H22.679V23.3324H10.8892V25.3324ZM21.679 24.3324V30H23.679V24.3324H21.679ZM22.679 29H1.14489V31H22.679V29Z" fill="url(#paint0_linear_24_2)" mask="url(#path-1-outside-1_24_2)"/>
<path d="M1.14489 30H0.144886V31H1.14489V30ZM1.14489 24.9432L0.486168 24.1908L0.144886 24.4896V24.9432H1.14489ZM11.7557 15.6534L12.4144 16.4058L12.4205 16.4004L12.4266 16.3949L11.7557 15.6534ZM13.7869 13.679L14.5169 14.3626L14.5222 14.3568L13.7869 13.679ZM15.0653 11.8608L15.9653 12.2967L15.9679 12.2913L15.0653 11.8608ZM14.9801 7.7983L14.1251 8.31692L14.1289 8.32318L14.9801 7.7983ZM13.5312 6.46307L13.0786 7.35473L13.0786 7.35473L13.5312 6.46307ZM9.2983 6.49148L9.76748 7.37466L9.77811 7.36885L9.2983 6.49148ZM7.87784 7.89773L7.00299 7.41319L6.99737 7.42363L7.87784 7.89773ZM7.38068 10.142V11.142H8.38068V10.142H7.38068ZM0.71875 10.142H-0.28125V11.142H0.71875V10.142ZM2.05398 5.0142L2.90448 5.54017L2.90448 5.54017L2.05398 5.0142ZM5.80398 1.69034L6.23843 2.59104L6.24064 2.58997L5.80398 1.69034ZM17.196 1.61932L17.609 0.708589L17.609 0.708589L17.196 1.61932ZM20.9744 4.71591L20.1442 5.27336L20.1488 5.28017L20.9744 4.71591ZM21.6562 12.5994L20.7306 12.2211L20.7306 12.2211L21.6562 12.5994ZM19.2557 16.2074L18.5041 15.5477L18.5014 15.5508L19.2557 16.2074ZM14.3693 20.9375L13.713 20.183L13.702 20.1926L13.6913 20.2025L14.3693 20.9375ZM10.8892 24.1477L10.2112 23.4127L9.8892 23.7097V24.1477H10.8892ZM10.8892 24.3324H9.8892V25.3324H10.8892V24.3324ZM22.679 24.3324H23.679V23.3324H22.679V24.3324ZM22.679 30V31H23.679V30H22.679ZM2.14489 30V24.9432H0.144886V30H2.14489ZM1.8036 25.6956L12.4144 16.4058L11.097 14.901L0.486168 24.1908L1.8036 25.6956ZM12.4266 16.3949C13.2366 15.6621 13.9345 14.9843 14.5168 14.3625L13.057 12.9954C12.5219 13.5668 11.8657 14.2053 11.0848 14.9119L12.4266 16.3949ZM14.5222 14.3568C15.1331 13.6941 15.6207 13.0082 15.9653 12.2967L14.1654 11.4249C13.9229 11.9255 13.5582 12.4517 13.0517 13.0012L14.5222 14.3568ZM15.9679 12.2913C16.3292 11.5339 16.5057 10.7182 16.5057 9.85795H14.5057C14.5057 10.4371 14.3886 10.9567 14.1627 11.4303L15.9679 12.2913ZM16.5057 9.85795C16.5057 8.90602 16.2973 8.02912 15.8313 7.27341L14.1289 8.32318C14.3637 8.70384 14.5057 9.20004 14.5057 9.85795H16.5057ZM15.8351 7.27968C15.3858 6.53898 14.7619 5.96637 13.9839 5.5714L13.0786 7.35473C13.5316 7.58476 13.8736 7.90231 14.1251 8.31691L15.8351 7.27968ZM13.9839 5.5714C13.2082 5.17755 12.3435 4.99432 11.4148 4.99432V6.99432C12.0769 6.99432 12.6233 7.12359 13.0786 7.35473L13.9839 5.5714ZM11.4148 4.99432C10.47 4.99432 9.59432 5.18982 8.81848 5.61411L9.77811 7.36885C10.2144 7.13025 10.7497 6.99432 11.4148 6.99432V4.99432ZM8.82914 5.60836C8.04762 6.02354 7.43523 6.6329 7.00305 7.41323L8.75263 8.38223C9.00227 7.93149 9.33685 7.60335 9.76745 7.37459L8.82914 5.60836ZM6.99737 7.42363C6.56967 8.21792 6.38068 9.138 6.38068 10.142H8.38068C8.38068 9.38473 8.52313 8.80859 8.75831 8.37183L6.99737 7.42363ZM7.38068 9.14205H0.71875V11.142H7.38068V9.14205ZM1.71875 10.142C1.71875 8.31672 2.12761 6.79639 2.90448 5.54017L1.20347 4.48824C0.200044 6.1108 -0.28125 8.00904 -0.28125 10.142H1.71875ZM2.90448 5.54017C3.68873 4.27203 4.79003 3.28967 6.23843 2.59103L5.36952 0.789645C3.59823 1.64404 2.19953 2.87759 1.20347 4.48824L2.90448 5.54017ZM6.24064 2.58997C7.7005 1.88138 9.42599 1.51136 11.4432 1.51136V-0.488637C9.18008 -0.488637 7.14609 -0.0726671 5.36732 0.790714L6.24064 2.58997ZM11.4432 1.51136C13.5396 1.51136 15.3106 1.86232 16.783 2.53005L17.609 0.708589C15.8239 -0.100955 13.7596 -0.488637 11.4432 -0.488637V1.51136ZM16.783 2.53005C18.2635 3.20142 19.3697 4.1198 20.1442 5.27334L21.8047 4.15847C20.7989 2.6605 19.3861 1.51449 17.609 0.708589L16.783 2.53005ZM20.1488 5.28017C20.9243 6.41476 21.3239 7.74334 21.3239 9.30398H23.3239C23.3239 7.37976 22.8238 5.64963 21.8 4.15165L20.1488 5.28017ZM21.3239 9.30398C21.3239 10.2743 21.1296 11.2447 20.7306 12.2211L22.5819 12.9778C23.073 11.7762 23.3239 10.5496 23.3239 9.30398H21.3239ZM20.7306 12.2211C20.3427 13.1702 19.6184 14.2782 18.5041 15.5477L20.0073 16.867C21.2036 15.504 22.0797 14.2067 22.5819 12.9778L20.7306 12.2211ZM18.5014 15.5508C17.3984 16.8179 15.808 18.3605 13.713 20.183L15.0257 21.692C17.1542 19.8403 18.8213 18.2294 20.0099 16.864L18.5014 15.5508ZM13.6913 20.2025L10.2112 23.4127L11.5672 24.8828L15.0473 21.6725L13.6913 20.2025ZM9.8892 24.1477V24.3324H11.8892V24.1477H9.8892ZM10.8892 25.3324H22.679V23.3324H10.8892V25.3324ZM21.679 24.3324V30H23.679V24.3324H21.679ZM22.679 29H1.14489V31H22.679V29Z" fill="url(#paint1_linear_24_2)" mask="url(#path-1-outside-1_24_2)"/>
<defs>
<linearGradient id="paint0_linear_24_2" x1="12" y1="-7.75325" x2="12" y2="39" gradientUnits="userSpaceOnUse">
<stop stop-color="#0900FF" stop-opacity="0"/>
<stop offset="1" stop-color="#0900FF"/>
</linearGradient>
<linearGradient id="paint1_linear_24_2" x1="12" y1="-4.32468" x2="12" y2="11.5714" gradientUnits="userSpaceOnUse">
<stop stop-color="#FF3DEC" stop-opacity="0"/>
<stop offset="1" stop-color="#FF8AF3"/>
</linearGradient>
</defs>
</svg>
