<svg width="24" height="31" viewBox="0 0 24 31" fill="none" xmlns="http://www.w3.org/2000/svg">
<mask id="path-1-outside-1_26_2" maskUnits="userSpaceOnUse" x="-1" y="-1" width="26" height="33" fill="black">
<rect fill="white" x="-1" y="-1" width="26" height="33"/>
<path d="M12.2102 30.3977C9.99432 30.3977 8.02936 30.0189 6.31534 29.2614C4.6108 28.4943 3.2661 27.4384 2.28125 26.0938C1.2964 24.7491 0.794508 23.2008 0.775568 21.4489H7.84943C7.87784 22.0833 8.08144 22.6468 8.46023 23.1392C8.83902 23.6222 9.35511 24.0009 10.0085 24.2756C10.6619 24.5502 11.4053 24.6875 12.2386 24.6875C13.072 24.6875 13.8059 24.5407 14.4403 24.2472C15.0843 23.9441 15.5862 23.5322 15.946 23.0114C16.3059 22.4811 16.4811 21.875 16.4716 21.1932C16.4811 20.5114 16.2869 19.9053 15.8892 19.375C15.4915 18.8447 14.928 18.4328 14.1989 18.1392C13.4792 17.8456 12.6269 17.6989 11.642 17.6989H8.81534V12.6989H11.642C12.5038 12.6989 13.2614 12.5568 13.9148 12.2727C14.5777 11.9886 15.0938 11.5909 15.4631 11.0795C15.8324 10.5587 16.0123 9.96212 16.0028 9.28977C16.0123 8.63636 15.8561 8.06345 15.5341 7.57102C15.2216 7.06913 14.7813 6.68087 14.2131 6.40625C13.6544 6.13163 13.0057 5.99432 12.267 5.99432C11.4905 5.99432 10.785 6.13163 10.1506 6.40625C9.52557 6.68087 9.02841 7.06913 8.65909 7.57102C8.28977 8.07292 8.09564 8.6553 8.0767 9.31818H1.35795C1.37689 7.58523 1.85985 6.06061 2.80682 4.74432C3.75379 3.41856 5.04167 2.38163 6.67045 1.63352C8.30871 0.885416 10.1742 0.511363 12.267 0.511363C14.3504 0.511363 16.1828 0.875946 17.7642 1.60511C19.3456 2.33428 20.5767 3.3286 21.4574 4.58807C22.3381 5.83807 22.7784 7.25379 22.7784 8.83523C22.7879 10.4735 22.2528 11.8229 21.1733 12.8835C20.1032 13.9441 18.7254 14.5975 17.0398 14.8438V15.071C19.2936 15.3362 20.9934 16.0653 22.1392 17.2585C23.2945 18.4517 23.8674 19.9432 23.858 21.733C23.858 23.4186 23.3608 24.9148 22.3665 26.2216C21.3816 27.5189 20.0085 28.5417 18.2472 29.2898C16.4953 30.0284 14.483 30.3977 12.2102 30.3977Z"/>
</mask>
<path d="M6.31534 29.2614L5.90497 30.1733L5.91108 30.176L6.31534 29.2614ZM2.28125 26.0938L1.47448 26.6846L1.47448 26.6846L2.28125 26.0938ZM0.775568 21.4489V20.4489H-0.235301L-0.224373 21.4597L0.775568 21.4489ZM7.84943 21.4489L8.84843 21.4041L8.80566 20.4489H7.84943V21.4489ZM8.46023 23.1392L7.66757 23.7489L7.67337 23.7563L8.46023 23.1392ZM10.0085 24.2756L9.62106 25.1975L9.62106 25.1975L10.0085 24.2756ZM14.4403 24.2472L14.8603 25.1547L14.8661 25.152L14.4403 24.2472ZM15.946 23.0114L16.7688 23.5798L16.7735 23.5729L15.946 23.0114ZM16.4716 21.1932L15.4717 21.1793L15.4715 21.1932L15.4717 21.2071L16.4716 21.1932ZM15.8892 19.375L15.0892 19.975L15.0892 19.975L15.8892 19.375ZM14.1989 18.1392L13.8212 19.0651L13.8254 19.0668L14.1989 18.1392ZM8.81534 17.6989H7.81534V18.6989H8.81534V17.6989ZM8.81534 12.6989V11.6989H7.81534V12.6989H8.81534ZM13.9148 12.2727L13.5208 11.3536L13.516 11.3557L13.9148 12.2727ZM15.4631 11.0795L16.2738 11.6651L16.2788 11.658L15.4631 11.0795ZM16.0028 9.28977L15.0029 9.27528L15.0027 9.28957L15.0029 9.30386L16.0028 9.28977ZM15.5341 7.57102L14.6852 8.09958L14.6911 8.10899L14.6971 8.11827L15.5341 7.57102ZM14.2131 6.40625L13.7719 7.30372L13.7779 7.3066L14.2131 6.40625ZM10.1506 6.40625L9.75334 5.48851L9.7483 5.49073L10.1506 6.40625ZM8.65909 7.57102L9.46453 8.1637L9.46453 8.1637L8.65909 7.57102ZM8.0767 9.31818V10.3182H9.04854L9.0763 9.34674L8.0767 9.31818ZM1.35795 9.31818L0.358014 9.30725L0.346966 10.3182H1.35795V9.31818ZM2.80682 4.74432L3.61858 5.32832L3.62055 5.32556L2.80682 4.74432ZM6.67045 1.63352L6.25507 0.723876L6.25307 0.724791L6.67045 1.63352ZM17.7642 1.60511L17.3455 2.51323L17.3455 2.51323L17.7642 1.60511ZM21.4574 4.58807L20.6379 5.16112L20.6399 5.16402L21.4574 4.58807ZM22.7784 8.83523L21.7784 8.83523L21.7784 8.84101L22.7784 8.83523ZM21.1733 12.8835L20.4725 12.1702L20.4693 12.1733L21.1733 12.8835ZM17.0398 14.8438L16.8952 13.8543L16.0398 13.9792V14.8438H17.0398ZM17.0398 15.071H16.0398V15.9603L16.9229 16.0642L17.0398 15.071ZM22.1392 17.2585L21.4179 17.9512L21.4208 17.9541L22.1392 17.2585ZM23.858 21.733L22.858 21.7277V21.733H23.858ZM22.3665 26.2216L21.5706 25.6161L21.57 25.617L22.3665 26.2216ZM18.2472 29.2898L18.6357 30.2112L18.6381 30.2102L18.2472 29.2898ZM12.2102 29.3977C10.1085 29.3977 8.2852 29.0387 6.7196 28.3467L5.91108 30.176C7.77352 30.9992 9.88015 31.3977 12.2102 31.3977V29.3977ZM6.72571 28.3494C5.1593 27.6446 3.95876 26.6918 3.08802 25.5029L1.47448 26.6846C2.57344 28.1851 4.06229 29.3441 5.90498 30.1733L6.72571 28.3494ZM3.08802 25.5029C2.23308 24.3356 1.79231 22.9925 1.77551 21.4381L-0.224373 21.4597C-0.2033 23.409 0.359727 25.1625 1.47448 26.6846L3.08802 25.5029ZM0.775568 22.4489H7.84943V20.4489H0.775568V22.4489ZM6.85043 21.4936C6.8878 22.3282 7.16073 23.09 7.6676 23.7489L9.25285 22.5295C9.00215 22.2036 8.86788 21.8384 8.84843 21.4041L6.85043 21.4936ZM7.67337 23.7563C8.17247 24.3927 8.83528 24.8672 9.62106 25.1975L10.396 23.3537C9.87495 23.1347 9.50557 22.8516 9.24708 22.5221L7.67337 23.7563ZM9.62106 25.1975C10.4167 25.5319 11.2953 25.6875 12.2386 25.6875V23.6875C11.5153 23.6875 10.9071 23.5685 10.396 23.3537L9.62106 25.1975ZM12.2386 25.6875C13.1895 25.6875 14.0713 25.5197 14.8603 25.1547L14.0204 23.3396C13.5404 23.5617 12.9544 23.6875 12.2386 23.6875V25.6875ZM14.8661 25.152C15.6495 24.7833 16.2966 24.2632 16.7688 23.5798L15.1233 22.4429C14.8758 22.8012 14.5191 23.1049 14.0145 23.3423L14.8661 25.152ZM16.7735 23.5729C17.256 22.8618 17.4836 22.0522 17.4715 21.1793L15.4717 21.2071C15.4785 21.6978 15.3558 22.1003 15.1185 22.4499L16.7735 23.5729ZM17.4715 21.2071C17.4839 20.311 17.2237 19.4876 16.6892 18.775L15.0892 19.975C15.3502 20.323 15.4782 20.7117 15.4717 21.1793L17.4715 21.2071ZM16.6892 18.775C16.163 18.0734 15.4392 17.5605 14.5723 17.2116L13.8254 19.0668C14.4169 19.305 14.8199 19.616 15.0892 19.975L16.6892 18.775ZM14.5765 17.2133C13.7096 16.8596 12.7232 16.6989 11.642 16.6989V18.6989C12.5306 18.6989 13.2487 18.8316 13.8212 19.0651L14.5765 17.2133ZM11.642 16.6989H8.81534V18.6989H11.642V16.6989ZM9.81534 17.6989V12.6989H7.81534V17.6989H9.81534ZM8.81534 13.6989H11.642V11.6989H8.81534V13.6989ZM11.642 13.6989C12.6129 13.6989 13.5108 13.5388 14.3135 13.1898L13.516 11.3557C13.0119 11.5748 12.3947 11.6989 11.642 11.6989V13.6989ZM14.3087 13.1919C15.1138 12.8468 15.7838 12.3434 16.2737 11.665L14.6524 10.4941C14.4037 10.8384 14.0415 11.1305 13.5209 11.3536L14.3087 13.1919ZM16.2788 11.658C16.7775 10.9546 17.015 10.1481 17.0027 9.27569L15.0029 9.30386C15.0096 9.77617 14.8872 10.1628 14.6473 10.5011L16.2788 11.658ZM17.0027 9.30426C17.0148 8.4745 16.814 7.70125 16.3711 7.02377L14.6971 8.11827C14.8981 8.42564 15.0099 8.79822 15.0029 9.27528L17.0027 9.30426ZM16.383 7.04246C15.9637 6.36907 15.3747 5.85704 14.6482 5.5059L13.7779 7.3066C14.1878 7.5047 14.4795 7.76919 14.6852 8.09958L16.383 7.04246ZM14.6542 5.5088C13.9349 5.15525 13.1303 4.99432 12.267 4.99432V6.99432C12.881 6.99432 13.3738 7.108 13.7719 7.3037L14.6542 5.5088ZM12.267 4.99432C11.3707 4.99432 10.5278 5.15332 9.75334 5.48853L10.5478 7.32397C11.0423 7.10994 11.6103 6.99432 12.267 6.99432V4.99432ZM9.7483 5.49073C8.97871 5.82888 8.33651 6.32215 7.85365 6.97834L9.46453 8.1637C9.72031 7.81611 10.0724 7.53286 10.5528 7.32177L9.7483 5.49073ZM7.85365 6.97834C7.3558 7.65491 7.10147 8.43711 7.07711 9.28962L9.0763 9.34674C9.08982 8.87349 9.22374 8.49092 9.46453 8.1637L7.85365 6.97834ZM8.0767 8.31818H1.35795V10.3182H8.0767V8.31818ZM2.35789 9.32911C2.37475 7.78704 2.80027 6.46576 3.61857 5.32831L1.99506 4.16032C0.919431 5.65545 0.37904 7.38341 0.358014 9.30725L2.35789 9.32911ZM3.62055 5.32556C4.45628 4.15554 5.60117 3.22508 7.08784 2.54225L6.25307 0.724791C4.48216 1.53817 3.0513 2.68158 1.99308 4.16308L3.62055 5.32556ZM7.08584 2.54317C8.57424 1.86349 10.2945 1.51136 12.267 1.51136V-0.488637C10.054 -0.488637 8.04319 -0.0926621 6.25507 0.723878L7.08584 2.54317ZM12.267 1.51136C14.2338 1.51136 15.9186 1.85531 17.3455 2.51323L18.1829 0.696994C16.447 -0.103415 14.467 -0.488637 12.267 -0.488637V1.51136ZM17.3455 2.51323C18.7878 3.17827 19.8717 4.0654 20.6379 5.16112L22.2769 4.01502C21.2817 2.5918 19.9034 1.49029 18.1829 0.696994L17.3455 2.51323ZM20.6399 5.16402C21.3976 6.2394 21.7784 7.45248 21.7784 8.83523H23.7784C23.7784 7.0551 23.2786 5.43674 22.2749 4.01211L20.6399 5.16402ZM21.7784 8.84101C21.7865 10.2337 21.3423 11.3157 20.4725 12.1702L21.8741 13.5969C23.1634 12.3302 23.7893 10.7133 23.7784 8.82945L21.7784 8.84101ZM20.4693 12.1733C19.5706 13.0641 18.3982 13.6347 16.8952 13.8543L17.1843 15.8332C19.0526 15.5604 20.6358 14.8242 21.8773 13.5938L20.4693 12.1733ZM16.0398 14.8438V15.071H18.0398V14.8438H16.0398ZM16.9229 16.0642C19.0316 16.3123 20.4834 16.978 21.4179 17.9512L22.8605 16.5659C21.5033 15.1527 19.5555 14.3601 17.1566 14.0779L16.9229 16.0642ZM21.4208 17.9541C22.3792 18.944 22.8662 20.177 22.858 21.7277L24.8579 21.7382C24.8687 19.7094 24.2098 17.9594 22.8576 16.5629L21.4208 17.9541ZM22.858 21.733C22.858 23.2061 22.4288 24.4882 21.5706 25.6161L23.1623 26.8271C24.2928 25.3413 24.858 23.6311 24.858 21.733H22.858ZM21.57 25.617C20.7076 26.753 19.4854 27.6774 17.8562 28.3694L18.6381 30.2102C20.5316 29.406 22.0556 28.2849 23.163 26.8262L21.57 25.617ZM17.8587 28.3683C16.2513 29.046 14.3751 29.3977 12.2102 29.3977V31.3977C14.5908 31.3977 16.7393 31.0108 18.6357 30.2112L17.8587 28.3683Z" fill="url(#paint0_linear_26_2)" mask="url(#path-1-outside-1_26_2)"/>
<path d="M6.31534 29.2614L5.90497 30.1733L5.91108 30.176L6.31534 29.2614ZM2.28125 26.0938L1.47448 26.6846L1.47448 26.6846L2.28125 26.0938ZM0.775568 21.4489V20.4489H-0.235301L-0.224373 21.4597L0.775568 21.4489ZM7.84943 21.4489L8.84843 21.4041L8.80566 20.4489H7.84943V21.4489ZM8.46023 23.1392L7.66757 23.7489L7.67337 23.7563L8.46023 23.1392ZM10.0085 24.2756L9.62106 25.1975L9.62106 25.1975L10.0085 24.2756ZM14.4403 24.2472L14.8603 25.1547L14.8661 25.152L14.4403 24.2472ZM15.946 23.0114L16.7688 23.5798L16.7735 23.5729L15.946 23.0114ZM16.4716 21.1932L15.4717 21.1793L15.4715 21.1932L15.4717 21.2071L16.4716 21.1932ZM15.8892 19.375L15.0892 19.975L15.0892 19.975L15.8892 19.375ZM14.1989 18.1392L13.8212 19.0651L13.8254 19.0668L14.1989 18.1392ZM8.81534 17.6989H7.81534V18.6989H8.81534V17.6989ZM8.81534 12.6989V11.6989H7.81534V12.6989H8.81534ZM13.9148 12.2727L13.5208 11.3536L13.516 11.3557L13.9148 12.2727ZM15.4631 11.0795L16.2738 11.6651L16.2788 11.658L15.4631 11.0795ZM16.0028 9.28977L15.0029 9.27528L15.0027 9.28957L15.0029 9.30386L16.0028 9.28977ZM15.5341 7.57102L14.6852 8.09958L14.6911 8.10899L14.6971 8.11827L15.5341 7.57102ZM14.2131 6.40625L13.7719 7.30372L13.7779 7.3066L14.2131 6.40625ZM10.1506 6.40625L9.75334 5.48851L9.7483 5.49073L10.1506 6.40625ZM8.65909 7.57102L9.46453 8.1637L9.46453 8.1637L8.65909 7.57102ZM8.0767 9.31818V10.3182H9.04854L9.0763 9.34674L8.0767 9.31818ZM1.35795 9.31818L0.358014 9.30725L0.346966 10.3182H1.35795V9.31818ZM2.80682 4.74432L3.61858 5.32832L3.62055 5.32556L2.80682 4.74432ZM6.67045 1.63352L6.25507 0.723876L6.25307 0.724791L6.67045 1.63352ZM17.7642 1.60511L17.3455 2.51323L17.3455 2.51323L17.7642 1.60511ZM21.4574 4.58807L20.6379 5.16112L20.6399 5.16402L21.4574 4.58807ZM22.7784 8.83523L21.7784 8.83523L21.7784 8.84101L22.7784 8.83523ZM21.1733 12.8835L20.4725 12.1702L20.4693 12.1733L21.1733 12.8835ZM17.0398 14.8438L16.8952 13.8543L16.0398 13.9792V14.8438H17.0398ZM17.0398 15.071H16.0398V15.9603L16.9229 16.0642L17.0398 15.071ZM22.1392 17.2585L21.4179 17.9512L21.4208 17.9541L22.1392 17.2585ZM23.858 21.733L22.858 21.7277V21.733H23.858ZM22.3665 26.2216L21.5706 25.6161L21.57 25.617L22.3665 26.2216ZM18.2472 29.2898L18.6357 30.2112L18.6381 30.2102L18.2472 29.2898ZM12.2102 29.3977C10.1085 29.3977 8.2852 29.0387 6.7196 28.3467L5.91108 30.176C7.77352 30.9992 9.88015 31.3977 12.2102 31.3977V29.3977ZM6.72571 28.3494C5.1593 27.6446 3.95876 26.6918 3.08802 25.5029L1.47448 26.6846C2.57344 28.1851 4.06229 29.3441 5.90498 30.1733L6.72571 28.3494ZM3.08802 25.5029C2.23308 24.3356 1.79231 22.9925 1.77551 21.4381L-0.224373 21.4597C-0.2033 23.409 0.359727 25.1625 1.47448 26.6846L3.08802 25.5029ZM0.775568 22.4489H7.84943V20.4489H0.775568V22.4489ZM6.85043 21.4936C6.8878 22.3282 7.16073 23.09 7.6676 23.7489L9.25285 22.5295C9.00215 22.2036 8.86788 21.8384 8.84843 21.4041L6.85043 21.4936ZM7.67337 23.7563C8.17247 24.3927 8.83528 24.8672 9.62106 25.1975L10.396 23.3537C9.87495 23.1347 9.50557 22.8516 9.24708 22.5221L7.67337 23.7563ZM9.62106 25.1975C10.4167 25.5319 11.2953 25.6875 12.2386 25.6875V23.6875C11.5153 23.6875 10.9071 23.5685 10.396 23.3537L9.62106 25.1975ZM12.2386 25.6875C13.1895 25.6875 14.0713 25.5197 14.8603 25.1547L14.0204 23.3396C13.5404 23.5617 12.9544 23.6875 12.2386 23.6875V25.6875ZM14.8661 25.152C15.6495 24.7833 16.2966 24.2632 16.7688 23.5798L15.1233 22.4429C14.8758 22.8012 14.5191 23.1049 14.0145 23.3423L14.8661 25.152ZM16.7735 23.5729C17.256 22.8618 17.4836 22.0522 17.4715 21.1793L15.4717 21.2071C15.4785 21.6978 15.3558 22.1003 15.1185 22.4499L16.7735 23.5729ZM17.4715 21.2071C17.4839 20.311 17.2237 19.4876 16.6892 18.775L15.0892 19.975C15.3502 20.323 15.4782 20.7117 15.4717 21.1793L17.4715 21.2071ZM16.6892 18.775C16.163 18.0734 15.4392 17.5605 14.5723 17.2116L13.8254 19.0668C14.4169 19.305 14.8199 19.616 15.0892 19.975L16.6892 18.775ZM14.5765 17.2133C13.7096 16.8596 12.7232 16.6989 11.642 16.6989V18.6989C12.5306 18.6989 13.2487 18.8316 13.8212 19.0651L14.5765 17.2133ZM11.642 16.6989H8.81534V18.6989H11.642V16.6989ZM9.81534 17.6989V12.6989H7.81534V17.6989H9.81534ZM8.81534 13.6989H11.642V11.6989H8.81534V13.6989ZM11.642 13.6989C12.6129 13.6989 13.5108 13.5388 14.3135 13.1898L13.516 11.3557C13.0119 11.5748 12.3947 11.6989 11.642 11.6989V13.6989ZM14.3087 13.1919C15.1138 12.8468 15.7838 12.3434 16.2737 11.665L14.6524 10.4941C14.4037 10.8384 14.0415 11.1305 13.5209 11.3536L14.3087 13.1919ZM16.2788 11.658C16.7775 10.9546 17.015 10.1481 17.0027 9.27569L15.0029 9.30386C15.0096 9.77617 14.8872 10.1628 14.6473 10.5011L16.2788 11.658ZM17.0027 9.30426C17.0148 8.4745 16.814 7.70125 16.3711 7.02377L14.6971 8.11827C14.8981 8.42564 15.0099 8.79822 15.0029 9.27528L17.0027 9.30426ZM16.383 7.04246C15.9637 6.36907 15.3747 5.85704 14.6482 5.5059L13.7779 7.3066C14.1878 7.5047 14.4795 7.76919 14.6852 8.09958L16.383 7.04246ZM14.6542 5.5088C13.9349 5.15525 13.1303 4.99432 12.267 4.99432V6.99432C12.881 6.99432 13.3738 7.108 13.7719 7.3037L14.6542 5.5088ZM12.267 4.99432C11.3707 4.99432 10.5278 5.15332 9.75334 5.48853L10.5478 7.32397C11.0423 7.10994 11.6103 6.99432 12.267 6.99432V4.99432ZM9.7483 5.49073C8.97871 5.82888 8.33651 6.32215 7.85365 6.97834L9.46453 8.1637C9.72031 7.81611 10.0724 7.53286 10.5528 7.32177L9.7483 5.49073ZM7.85365 6.97834C7.3558 7.65491 7.10147 8.43711 7.07711 9.28962L9.0763 9.34674C9.08982 8.87349 9.22374 8.49092 9.46453 8.1637L7.85365 6.97834ZM8.0767 8.31818H1.35795V10.3182H8.0767V8.31818ZM2.35789 9.32911C2.37475 7.78704 2.80027 6.46576 3.61857 5.32831L1.99506 4.16032C0.919431 5.65545 0.37904 7.38341 0.358014 9.30725L2.35789 9.32911ZM3.62055 5.32556C4.45628 4.15554 5.60117 3.22508 7.08784 2.54225L6.25307 0.724791C4.48216 1.53817 3.0513 2.68158 1.99308 4.16308L3.62055 5.32556ZM7.08584 2.54317C8.57424 1.86349 10.2945 1.51136 12.267 1.51136V-0.488637C10.054 -0.488637 8.04319 -0.0926621 6.25507 0.723878L7.08584 2.54317ZM12.267 1.51136C14.2338 1.51136 15.9186 1.85531 17.3455 2.51323L18.1829 0.696994C16.447 -0.103415 14.467 -0.488637 12.267 -0.488637V1.51136ZM17.3455 2.51323C18.7878 3.17827 19.8717 4.0654 20.6379 5.16112L22.2769 4.01502C21.2817 2.5918 19.9034 1.49029 18.1829 0.696994L17.3455 2.51323ZM20.6399 5.16402C21.3976 6.2394 21.7784 7.45248 21.7784 8.83523H23.7784C23.7784 7.0551 23.2786 5.43674 22.2749 4.01211L20.6399 5.16402ZM21.7784 8.84101C21.7865 10.2337 21.3423 11.3157 20.4725 12.1702L21.8741 13.5969C23.1634 12.3302 23.7893 10.7133 23.7784 8.82945L21.7784 8.84101ZM20.4693 12.1733C19.5706 13.0641 18.3982 13.6347 16.8952 13.8543L17.1843 15.8332C19.0526 15.5604 20.6358 14.8242 21.8773 13.5938L20.4693 12.1733ZM16.0398 14.8438V15.071H18.0398V14.8438H16.0398ZM16.9229 16.0642C19.0316 16.3123 20.4834 16.978 21.4179 17.9512L22.8605 16.5659C21.5033 15.1527 19.5555 14.3601 17.1566 14.0779L16.9229 16.0642ZM21.4208 17.9541C22.3792 18.944 22.8662 20.177 22.858 21.7277L24.8579 21.7382C24.8687 19.7094 24.2098 17.9594 22.8576 16.5629L21.4208 17.9541ZM22.858 21.733C22.858 23.2061 22.4288 24.4882 21.5706 25.6161L23.1623 26.8271C24.2928 25.3413 24.858 23.6311 24.858 21.733H22.858ZM21.57 25.617C20.7076 26.753 19.4854 27.6774 17.8562 28.3694L18.6381 30.2102C20.5316 29.406 22.0556 28.2849 23.163 26.8262L21.57 25.617ZM17.8587 28.3683C16.2513 29.046 14.3751 29.3977 12.2102 29.3977V31.3977C14.5908 31.3977 16.7393 31.0108 18.6357 30.2112L17.8587 28.3683Z" fill="url(#paint1_linear_26_2)" mask="url(#path-1-outside-1_26_2)"/>
<defs>
<linearGradient id="paint0_linear_26_2" x1="12.5" y1="-7.75325" x2="12.5" y2="39" gradientUnits="userSpaceOnUse">
<stop stop-color="#0900FF" stop-opacity="0"/>
<stop offset="1" stop-color="#0900FF"/>
</linearGradient>
<linearGradient id="paint1_linear_26_2" x1="12.5" y1="-4.32468" x2="12.5" y2="11.5714" gradientUnits="userSpaceOnUse">
<stop stop-color="#FF3DEC" stop-opacity="0"/>
<stop offset="1" stop-color="#FF8AF3"/>
</linearGradient>
</defs>
</svg>
